<!-- Generated by IcoMoon.io -->
<svg version="1.1" xmlns="http://www.w3.org/2000/svg" width="32" height="32" viewBox="0 0 32 32">
<title>Client1</title>
<path fill="#afb1b8" d="M13.176 11.993l1.319 1.249-2.449-0.001v6.059h6.4v-2.317l1.318 1.247v-6.237h-6.588zM18.389 16.836l-3.74-3.541h3.74v3.541zM17.228 18.413h-4.168v-4.075h0.295v3.799h3.873v0.276zM14.044 20.106l-0.154 0.317-0.154-0.317h-0.129l0.225 0.423v0.246h0.117v-0.246l0.224-0.423h-0.129zM14.238 20.775l0.054-0.156h0.259l0.055 0.156h0.121l-0.253-0.669h-0.104l-0.253 0.669h0.121zM14.421 20.248l0.097 0.278h-0.194l0.097-0.278zM15.034 20.509c-0.017 0.026-0.025 0.054-0.025 0.085 0 0.056 0.020 0.102 0.059 0.137s0.093 0.052 0.159 0.052 0.123-0.018 0.171-0.054l0.038 0.045h0.13l-0.098-0.116c0.039-0.053 0.058-0.12 0.058-0.203h-0.097c0 0.045-0.009 0.086-0.028 0.123l-0.129-0.153 0.046-0.033c0.032-0.023 0.055-0.047 0.069-0.070s0.021-0.049 0.021-0.077c0-0.042-0.016-0.078-0.047-0.106s-0.071-0.043-0.12-0.043c-0.054 0-0.097 0.015-0.129 0.046s-0.048 0.072-0.048 0.124c0 0.021 0.005 0.044 0.015 0.067s0.029 0.051 0.055 0.084c-0.050 0.036-0.083 0.066-0.1 0.092zM15.336 20.657c-0.033 0.025-0.068 0.038-0.106 0.038-0.033 0-0.060-0.010-0.080-0.029s-0.030-0.044-0.030-0.075c0-0.036 0.018-0.068 0.055-0.096l0.014-0.010 0.146 0.172zM15.216 20.361c-0.032-0.039-0.047-0.071-0.047-0.097 0-0.022 0.006-0.041 0.019-0.056s0.030-0.022 0.052-0.022c0.020 0 0.037 0.006 0.050 0.019s0.020 0.027 0.020 0.045c0 0.026-0.009 0.048-0.028 0.065l-0.014 0.011-0.051 0.035zM16.305 20.724c0.046-0.040 0.072-0.096 0.079-0.167h-0.116c-0.006 0.048-0.021 0.082-0.044 0.102s-0.057 0.031-0.103 0.031c-0.050 0-0.088-0.019-0.114-0.057s-0.039-0.093-0.039-0.165v-0.059c0.001-0.071 0.014-0.125 0.041-0.162s0.066-0.056 0.117-0.056c0.044 0 0.076 0.011 0.099 0.032s0.037 0.056 0.042 0.104h0.116c-0.007-0.073-0.034-0.13-0.079-0.17s-0.104-0.060-0.178-0.060c-0.055 0-0.103 0.013-0.145 0.039s-0.074 0.063-0.096 0.111-0.034 0.104-0.034 0.167v0.063c0.001 0.062 0.012 0.116 0.034 0.162s0.053 0.083 0.094 0.108c0.041 0.025 0.088 0.038 0.141 0.038 0.076 0 0.137-0.020 0.183-0.060zM16.989 20.631c0.023-0.050 0.034-0.107 0.034-0.173v-0.037c-0-0.065-0.012-0.122-0.035-0.171s-0.056-0.087-0.098-0.113c-0.042-0.026-0.090-0.040-0.145-0.040s-0.103 0.013-0.145 0.040c-0.042 0.026-0.075 0.064-0.098 0.114s-0.034 0.108-0.034 0.173v0.038c0 0.064 0.012 0.121 0.035 0.17s0.056 0.087 0.098 0.113c0.043 0.026 0.091 0.040 0.145 0.040s0.103-0.013 0.145-0.040c0.042-0.027 0.075-0.065 0.097-0.114zM16.864 20.252c0.028 0.040 0.042 0.096 0.042 0.171v0.035c0 0.075-0.014 0.133-0.042 0.172s-0.067 0.059-0.119 0.059c-0.051 0-0.091-0.020-0.119-0.060s-0.043-0.097-0.043-0.171v-0.039c0.001-0.072 0.015-0.128 0.043-0.167s0.068-0.059 0.118-0.059c0.051 0 0.091 0.020 0.119 0.059z"></path>
</svg>
