<!-- Generated by IcoMoon.io -->
<svg version="1.1" xmlns="http://www.w3.org/2000/svg" width="32" height="32" viewBox="0 0 32 32">
<title>Client-3</title>
<path fill="#afb1b8" d="M12.876 19.596c0.003 0 0.006 0.001 0.009 0.002s0.005 0.003 0.007 0.005l0.041 0.039c-0.032 0.032-0.071 0.057-0.115 0.075-0.052 0.019-0.108 0.028-0.164 0.027-0.053 0.001-0.105-0.008-0.154-0.025-0.044-0.016-0.084-0.040-0.116-0.070-0.033-0.032-0.059-0.069-0.075-0.109-0.018-0.045-0.027-0.092-0.026-0.14-0.001-0.048 0.009-0.095 0.028-0.14 0.018-0.041 0.045-0.078 0.080-0.109s0.077-0.055 0.123-0.071c0.051-0.017 0.104-0.026 0.159-0.025 0.050-0.001 0.1 0.007 0.147 0.023 0.041 0.015 0.078 0.037 0.11 0.063l-0.034 0.042c-0.002 0.003-0.005 0.006-0.009 0.008s-0.009 0.004-0.014 0.003c-0.005-0-0.010-0.002-0.015-0.004l-0.018-0.011-0.026-0.014c-0.011-0.005-0.023-0.010-0.034-0.014-0.015-0.005-0.031-0.008-0.047-0.011-0.020-0.003-0.041-0.005-0.061-0.004-0.039-0-0.078 0.006-0.114 0.019-0.034 0.012-0.064 0.030-0.089 0.053-0.026 0.024-0.045 0.053-0.058 0.084-0.014 0.035-0.022 0.073-0.021 0.111-0.001 0.038 0.007 0.076 0.021 0.112 0.013 0.031 0.032 0.059 0.057 0.083 0.024 0.023 0.053 0.040 0.085 0.052s0.069 0.018 0.106 0.018c0.021 0 0.042-0.001 0.063-0.004 0.034-0.004 0.066-0.014 0.095-0.030 0.014-0.008 0.028-0.017 0.041-0.028 0.005-0.004 0.012-0.007 0.020-0.007v0z"></path>
<path fill="#afb1b8" d="M14.062 19.398c0.001 0.047-0.009 0.094-0.028 0.139-0.017 0.040-0.043 0.077-0.077 0.108s-0.076 0.055-0.121 0.071c-0.1 0.033-0.212 0.033-0.312 0-0.045-0.016-0.086-0.040-0.121-0.071s-0.061-0.068-0.078-0.109c-0.037-0.090-0.037-0.188 0-0.278 0.018-0.041 0.044-0.078 0.078-0.109 0.034-0.030 0.075-0.053 0.121-0.068 0.1-0.034 0.212-0.034 0.312 0 0.046 0.016 0.087 0.040 0.121 0.071s0.060 0.068 0.077 0.107c0.019 0.045 0.028 0.092 0.028 0.14zM13.954 19.398c0.001-0.038-0.006-0.076-0.020-0.111-0.011-0.031-0.030-0.059-0.055-0.083-0.024-0.023-0.054-0.041-0.087-0.053-0.073-0.024-0.154-0.024-0.227 0-0.033 0.012-0.063 0.030-0.087 0.053-0.025 0.024-0.044 0.052-0.055 0.083-0.026 0.073-0.026 0.15 0 0.223 0.012 0.031 0.030 0.059 0.055 0.083 0.024 0.023 0.054 0.041 0.087 0.052 0.073 0.024 0.154 0.024 0.227 0 0.033-0.012 0.063-0.029 0.087-0.052 0.025-0.024 0.043-0.053 0.055-0.083 0.014-0.036 0.020-0.074 0.020-0.111v0z"></path>
<path fill="#afb1b8" d="M14.871 19.515l0.011 0.025c0.004-0.009 0.008-0.017 0.012-0.025s0.008-0.017 0.013-0.025l0.262-0.414c0.005-0.007 0.010-0.012 0.015-0.013 0.007-0.002 0.014-0.003 0.022-0.002h0.078v0.674h-0.092v-0.495c0-0.006 0-0.013 0-0.021s-0.001-0.015 0-0.023l-0.264 0.42c-0.003 0.006-0.009 0.012-0.015 0.015s-0.015 0.006-0.023 0.006h-0.015c-0.008 0-0.016-0.002-0.023-0.006s-0.012-0.009-0.015-0.015l-0.271-0.423c0 0.008 0 0.016 0 0.024s0 0.015 0 0.021v0.495h-0.089v-0.672h0.078c0.007-0 0.015 0 0.022 0.002s0.011 0.007 0.014 0.013l0.268 0.415c0.005 0.008 0.010 0.016 0.013 0.024v0z"></path>
<path fill="#afb1b8" d="M15.858 19.482v0.252h-0.103v-0.673h0.229c0.043-0.001 0.086 0.004 0.128 0.015 0.033 0.008 0.064 0.022 0.090 0.042 0.023 0.018 0.040 0.041 0.051 0.066 0.012 0.027 0.018 0.057 0.017 0.086 0 0.029-0.006 0.059-0.019 0.086-0.012 0.026-0.031 0.049-0.055 0.067-0.026 0.020-0.057 0.035-0.091 0.045-0.040 0.011-0.082 0.016-0.124 0.016l-0.124-0.002zM15.858 19.41h0.124c0.027 0 0.054-0.003 0.080-0.010 0.021-0.006 0.041-0.016 0.058-0.029 0.015-0.012 0.027-0.028 0.035-0.045s0.013-0.037 0.012-0.057c0.001-0.019-0.002-0.037-0.010-0.055s-0.020-0.033-0.036-0.046c-0.039-0.027-0.088-0.040-0.138-0.036h-0.124v0.277z"></path>
<path fill="#afb1b8" d="M17.237 19.735h-0.081c-0.008 0-0.016-0.002-0.023-0.006s-0.010-0.010-0.013-0.016l-0.070-0.163h-0.351l-0.072 0.163c-0.003 0.006-0.007 0.011-0.013 0.015s-0.015 0.007-0.023 0.007h-0.081l0.308-0.674h0.107l0.312 0.674zM16.729 19.485h0.289l-0.122-0.274c-0.009-0.021-0.017-0.042-0.023-0.063l-0.012 0.035c-0.004 0.011-0.008 0.021-0.011 0.029l-0.121 0.274z"></path>
<path fill="#afb1b8" d="M17.681 19.064c0.006 0.003 0.011 0.007 0.015 0.012l0.449 0.508c0-0.008 0-0.016 0-0.024s0-0.015 0-0.022v-0.477h0.092v0.674h-0.051c-0.007 0-0.015-0.001-0.021-0.004s-0.012-0.007-0.016-0.012l-0.449-0.507c0 0.008 0 0.015 0 0.023s0 0.014 0 0.020v0.48h-0.092v-0.674h0.054c0.006-0 0.013 0.001 0.018 0.003v0z"></path>
<path fill="#afb1b8" d="M18.994 19.467v0.268h-0.103v-0.268l-0.284-0.406h0.092c0.008-0 0.016 0.002 0.022 0.006s0.010 0.009 0.014 0.015l0.178 0.262c0.007 0.011 0.013 0.021 0.018 0.031s0.009 0.019 0.013 0.029l0.013-0.029c0.005-0.011 0.011-0.021 0.017-0.031l0.175-0.264c0.004-0.005 0.008-0.010 0.013-0.014s0.014-0.007 0.022-0.007h0.093l-0.284 0.408z"></path>
<path fill="#afb1b8" d="M14.82 17.931c0.045 0.005 0.090 0.009 0.136 0.012 0.692-0.269 1.278-0.71 1.684-1.267s0.614-1.205 0.598-1.864l-0.763-0.663c0.155 0.702 0.083 1.427-0.21 2.095s-0.793 1.252-1.445 1.687v0z"></path>
<path fill="#afb1b8" d="M14.548 17.9l0.021 0.004c0.697-0.433 1.229-1.038 1.526-1.737s0.346-1.459 0.141-2.182l-1.087-0.944c0.44 0.776 0.617 1.645 0.51 2.505s-0.492 1.677-1.111 2.354v0z"></path>
<path fill="#afb1b8" d="M18.234 15.591c-0.185 0.724-0.633 1.377-1.279 1.862-0.189 0.142-0.392 0.269-0.608 0.379 0.526-0.134 1.009-0.372 1.413-0.694s0.716-0.721 0.915-1.165l-0.441-0.383z"></path>
<path fill="#afb1b8" d="M18.061 15.484l-0.628-0.545c-0.012 0.622-0.215 1.229-0.589 1.76s-0.904 0.964-1.536 1.256h0.003c0.141-0 0.282-0.007 0.421-0.022 0.591-0.209 1.112-0.543 1.519-0.97s0.685-0.935 0.81-1.479v0z"></path>
<path fill="#afb1b8" d="M14.638 12.642l-0.749-0.651c-0.669 0.225-1.245 0.62-1.652 1.134s-0.625 1.122-0.627 1.746v0c0.002 0.689 0.269 1.358 0.758 1.9s1.172 0.927 1.942 1.094c0.687-0.727 1.089-1.625 1.148-2.564s-0.228-1.87-0.82-2.658v0z"></path>
<path fill="#afb1b8" d="M19.791 15.384c-0.003-0.817-0.378-1.601-1.043-2.179s-1.567-0.904-2.508-0.906v0c-0.435-0-0.866 0.069-1.271 0.206l4.585 3.983c0.157-0.352 0.237-0.726 0.237-1.104v0z"></path>
</svg>
