<!-- Generated by IcoMoon.io -->
<svg version="1.1" xmlns="http://www.w3.org/2000/svg" width="32" height="32" viewBox="0 0 32 32">
<title>Client2</title>
<path fill="#afb1b8" d="M15.457 11.793h-0.026c-0.040-0.002-0.079-0.003-0.119-0.004v0h-0.086c-0.075 0-0.151 0.002-0.227 0.006-0.006-0-0.011-0-0.017 0-0.686 0.039-1.358 0.21-1.979 0.505l-0.081 0.039v4.168l0.19-0.065c0.167-0.057 0.345-0.109 0.53-0.157 0.498-0.128 1.010-0.196 1.524-0.202v0.548c-0.068 0-0.134 0.002-0.2 0.006h-0.016c-0.396 0.022-0.788 0.082-1.172 0.18-0.486 0.122-0.956 0.305-1.397 0.544v-5.345c0.458-0.267 0.951-0.468 1.465-0.596 0.451-0.117 0.915-0.176 1.381-0.178h0.080c0.096 0.002 0.19 0.007 0.278 0.013 0.232 0.016 0.462 0.053 0.688 0.11v0.539c-0.219-0.051-0.442-0.085-0.667-0.101-0.005-0-0.009-0.001-0.014-0.001-0.046-0.004-0.093-0.008-0.136-0.008zM16.405 12.343c0.119 0.009 0.243 0.013 0.369 0.013 0.49-0.002 0.977-0.064 1.452-0.186 0.486-0.122 0.955-0.305 1.396-0.545v5.25c-0.458 0.267-0.952 0.468-1.466 0.596-0.451 0.116-0.915 0.176-1.381 0.178-0.353 0.003-0.705-0.039-1.048-0.123v-5.284c0.081 0.019 0.164 0.036 0.249 0.050 0.139 0.023 0.286 0.041 0.429 0.051zM19.077 12.384l-0.191 0.064c-0.175 0.059-0.352 0.112-0.529 0.158-0.517 0.133-1.049 0.201-1.582 0.203-0.124 0-0.239-0.003-0.349-0.011l-0.152-0.010v4.287l0.13 0.012c0.121 0.011 0.246 0.016 0.371 0.016 0.42-0.002 0.839-0.056 1.246-0.161 0.335-0.084 0.661-0.201 0.974-0.35l0.081-0.039v-4.169z"></path>
<path fill="#afb1b8" d="M12.751 19.186c-0.027-0.028-0.060-0.051-0.097-0.065s-0.076-0.022-0.115-0.020c-0.042-0.001-0.084 0.007-0.122 0.023-0.036 0.014-0.068 0.036-0.095 0.063s-0.048 0.060-0.061 0.096c-0.015 0.038-0.022 0.078-0.022 0.118v0.714c-0.002 0.050 0.008 0.1 0.028 0.146 0.017 0.037 0.041 0.069 0.071 0.096 0.029 0.024 0.062 0.041 0.098 0.051 0.035 0.010 0.071 0.015 0.107 0.015 0.040 0 0.079-0.008 0.115-0.025 0.036-0.016 0.068-0.038 0.095-0.066s0.048-0.060 0.062-0.096c0.015-0.036 0.023-0.075 0.023-0.114v-0.080h-0.187v0.064c0.001 0.022-0.003 0.043-0.011 0.064-0.006 0.015-0.015 0.029-0.027 0.040-0.012 0.009-0.025 0.016-0.039 0.021-0.013 0.004-0.026 0.006-0.039 0.007-0.017 0.002-0.034-0.001-0.049-0.007s-0.029-0.017-0.039-0.031c-0.018-0.029-0.026-0.062-0.025-0.096v-0.666c-0.001-0.037 0.007-0.074 0.023-0.107 0.010-0.015 0.023-0.027 0.040-0.035s0.034-0.011 0.052-0.008c0.016-0.001 0.032 0.003 0.047 0.010s0.027 0.017 0.037 0.030c0.021 0.027 0.032 0.061 0.031 0.096v0.062h0.185v-0.073c0-0.043-0.007-0.085-0.023-0.125-0.014-0.037-0.035-0.072-0.062-0.101v0z"></path>
<path fill="#afb1b8" d="M13.86 19.178c-0.060-0.050-0.135-0.078-0.212-0.078-0.038 0-0.076 0.007-0.111 0.020s-0.070 0.033-0.099 0.058c-0.031 0.028-0.056 0.062-0.072 0.1-0.019 0.044-0.028 0.091-0.027 0.138v0.685c-0.001 0.048 0.008 0.096 0.027 0.14 0.017 0.037 0.042 0.070 0.072 0.096 0.029 0.026 0.062 0.047 0.099 0.060s0.073 0.020 0.111 0.020c0.038-0 0.076-0.007 0.111-0.020 0.037-0.014 0.071-0.034 0.101-0.060s0.054-0.059 0.070-0.096c0.019-0.044 0.028-0.092 0.027-0.14v-0.685c0.001-0.048-0.008-0.095-0.027-0.138-0.017-0.038-0.041-0.072-0.070-0.1v0zM13.772 20.101c0.002 0.018-0.001 0.037-0.007 0.054s-0.017 0.033-0.030 0.045c-0.025 0.021-0.056 0.032-0.088 0.032s-0.063-0.011-0.088-0.032c-0.013-0.013-0.023-0.028-0.030-0.045s-0.009-0.036-0.007-0.054v-0.685c-0.002-0.018 0.001-0.037 0.007-0.054s0.017-0.033 0.030-0.045c0.025-0.021 0.056-0.032 0.088-0.032s0.063 0.011 0.088 0.032c0.013 0.013 0.023 0.028 0.030 0.045s0.009 0.036 0.007 0.054v0.685z"></path>
<path fill="#afb1b8" d="M15.316 20.407v-1.297h-0.18l-0.236 0.686h-0.003l-0.238-0.686h-0.178v1.297h0.185v-0.789h0.003l0.181 0.558h0.092l0.183-0.558h0.003v0.789h0.185z"></path>
<path fill="#afb1b8" d="M16.369 19.201c-0.029-0.032-0.065-0.056-0.105-0.071-0.043-0.014-0.089-0.021-0.134-0.020h-0.275v1.297h0.185v-0.506h0.095c0.058 0.003 0.115-0.010 0.167-0.035 0.042-0.023 0.077-0.058 0.101-0.099 0.021-0.035 0.036-0.073 0.042-0.113 0.007-0.049 0.011-0.098 0.010-0.147 0.002-0.062-0.004-0.125-0.018-0.185-0.012-0.045-0.036-0.086-0.068-0.119v0zM16.273 19.597c-0.001 0.023-0.007 0.047-0.017 0.067-0.011 0.020-0.027 0.036-0.048 0.045-0.027 0.012-0.057 0.018-0.087 0.016h-0.084v-0.441h0.095c0.029-0.001 0.057 0.004 0.083 0.016 0.019 0.011 0.034 0.028 0.043 0.048 0.010 0.023 0.016 0.047 0.016 0.072 0 0.027 0 0.056 0 0.086s0.002 0.061 0 0.089h-0.002z"></path>
<path fill="#afb1b8" d="M17.244 19.11h-0.151l-0.286 1.297h0.185l0.054-0.279h0.252l0.054 0.279h0.185l-0.293-1.297zM17.073 19.952l0.091-0.47h0.003l0.090 0.47h-0.185z"></path>
<path fill="#afb1b8" d="M18.438 19.892h-0.003l-0.279-0.781h-0.178v1.297h0.185v-0.78h0.004l0.282 0.78h0.174v-1.297h-0.185v0.781z"></path>
<path fill="#afb1b8" d="M19.567 19.11l-0.149 0.516h-0.004l-0.149-0.516h-0.196l0.254 0.749v0.548h0.185v-0.548l0.254-0.749h-0.196z"></path>
<path fill="#afb1b8" d="M12.235 20.773h0.089v0.25h0.060v-0.25h0.089v-0.051h-0.238v0.051z"></path>
<path fill="#afb1b8" d="M12.984 20.722l-0.117 0.301h0.064l0.025-0.068h0.12l0.026 0.068h0.066l-0.12-0.301h-0.064zM12.974 20.904l0.041-0.112 0.041 0.112h-0.082z"></path>
<path fill="#afb1b8" d="M13.724 20.912h0.070v0.039c-0.020 0.016-0.045 0.025-0.071 0.025-0.012 0.001-0.024-0.002-0.035-0.007s-0.021-0.013-0.028-0.022c-0.016-0.023-0.024-0.051-0.022-0.078 0-0.067 0.029-0.101 0.087-0.101 0.015-0.002 0.030 0.003 0.043 0.011s0.021 0.022 0.025 0.037l0.060-0.011c-0.013-0.059-0.055-0.089-0.128-0.089-0.039-0.001-0.076 0.013-0.105 0.039-0.015 0.015-0.027 0.033-0.034 0.053s-0.011 0.041-0.009 0.063c-0.002 0.041 0.012 0.082 0.039 0.113 0.015 0.015 0.033 0.027 0.052 0.035s0.041 0.011 0.062 0.009c0.047 0.001 0.093-0.016 0.128-0.048v-0.119h-0.13v0.051z"></path>
<path fill="#afb1b8" d="M14.48 20.722h-0.061v0.301h0.211v-0.051h-0.15v-0.25z"></path>
<path fill="#afb1b8" d="M15.119 20.722h-0.061v0.301h0.061v-0.301z"></path>
<path fill="#afb1b8" d="M15.743 20.923l-0.123-0.201h-0.059v0.301h0.057v-0.197l0.121 0.197h0.060v-0.301h-0.056v0.201z"></path>
<path fill="#afb1b8" d="M16.308 20.89h0.15v-0.051h-0.15v-0.066h0.161v-0.051h-0.222v0.301h0.229v-0.051h-0.168v-0.081z"></path>
<path fill="#afb1b8" d="M17.678 20.841h-0.119v-0.119h-0.060v0.301h0.060v-0.132h0.119v0.132h0.060v-0.301h-0.060v0.119z"></path>
<path fill="#afb1b8" d="M18.246 20.89h0.15v-0.051h-0.15v-0.066h0.162v-0.051h-0.222v0.301h0.228v-0.051h-0.168v-0.081z"></path>
<path fill="#afb1b8" d="M19.016 20.89c0.053-0.008 0.079-0.036 0.079-0.084 0.002-0.013-0-0.026-0.006-0.038s-0.013-0.022-0.024-0.029c-0.027-0.014-0.058-0.020-0.088-0.018h-0.128v0.301h0.061v-0.126h0.012c0.013-0.001 0.026 0.002 0.038 0.007 0.009 0.005 0.016 0.013 0.021 0.022l0.066 0.096h0.072l-0.037-0.059c-0.016-0.029-0.039-0.054-0.067-0.072v0zM18.955 20.849h-0.045v-0.076h0.048c0.021-0.002 0.042 0.001 0.061 0.007 0.004 0.004 0.008 0.009 0.010 0.014s0.003 0.011 0.003 0.017c-0 0.006-0.002 0.012-0.005 0.017s-0.007 0.010-0.011 0.013c-0.020 0.006-0.041 0.009-0.062 0.007v0z"></path>
<path fill="#afb1b8" d="M19.597 20.89h0.15v-0.051h-0.15v-0.066h0.162v-0.051h-0.223v0.301h0.229v-0.051h-0.168v-0.081z"></path>
</svg>
