<!-- Generated by IcoMoon.io -->
<svg version="1.1" xmlns="http://www.w3.org/2000/svg" width="32" height="32" viewBox="0 0 32 32">
<title>Client5</title>
<path fill="#afb1b8" d="M11.060 18.774c0.046 0.052 0.070 0.117 0.069 0.184 0.002 0.044-0.006 0.087-0.025 0.127s-0.047 0.076-0.082 0.105c-0.089 0.062-0.2 0.092-0.311 0.085h-0.547v-1.165h0.535c0.106-0.006 0.211 0.021 0.297 0.077 0.035 0.026 0.062 0.060 0.080 0.098s0.026 0.079 0.024 0.12c0.003 0.064-0.019 0.128-0.062 0.178-0.042 0.046-0.099 0.078-0.163 0.091 0.072 0.012 0.138 0.047 0.185 0.1v0zM10.419 18.598h0.229c0.052 0.004 0.104-0.010 0.146-0.039 0.017-0.014 0.031-0.032 0.039-0.052s0.012-0.041 0.010-0.062c0.002-0.021-0.002-0.042-0.010-0.062s-0.021-0.037-0.038-0.052c-0.043-0.029-0.096-0.043-0.15-0.039h-0.225v0.306zM10.816 19.045c0.018-0.015 0.033-0.033 0.042-0.053s0.013-0.043 0.012-0.065c0.001-0.022-0.003-0.045-0.012-0.066s-0.024-0.039-0.043-0.054c-0.045-0.030-0.1-0.045-0.155-0.042h-0.24v0.321h0.243c0.055 0.003 0.109-0.011 0.154-0.040v0z"></path>
<path fill="#afb1b8" d="M12.155 19.275l-0.298-0.455h-0.112v0.455h-0.256v-1.165h0.485c0.122-0.008 0.243 0.028 0.338 0.099 0.068 0.063 0.109 0.147 0.115 0.235s-0.021 0.176-0.079 0.247c-0.060 0.063-0.142 0.105-0.231 0.118l0.317 0.466h-0.279zM11.745 18.66h0.21c0.146 0 0.218-0.059 0.218-0.177 0.002-0.024-0.002-0.048-0.012-0.071s-0.023-0.043-0.042-0.060c-0.046-0.035-0.105-0.052-0.165-0.047h-0.212l0.002 0.355z"></path>
<path fill="#afb1b8" d="M13.555 19.040h-0.511l-0.090 0.235h-0.269l0.469-1.152h0.29l0.467 1.152h-0.269l-0.088-0.235zM13.486 18.864l-0.187-0.492-0.187 0.492h0.373z"></path>
<path fill="#afb1b8" d="M15.308 19.275h-0.254l-0.57-0.793v0.793h-0.254v-1.165h0.254l0.57 0.797v-0.797h0.254v1.165z"></path>
<path fill="#afb1b8" d="M16.759 18.996c-0.053 0.088-0.133 0.16-0.23 0.206-0.111 0.051-0.234 0.076-0.358 0.073h-0.453v-1.165h0.453c0.124-0.003 0.246 0.022 0.358 0.072 0.097 0.045 0.178 0.116 0.23 0.203 0.052 0.095 0.080 0.2 0.080 0.306s-0.027 0.211-0.080 0.306v0zM16.468 18.968c0.073-0.077 0.113-0.176 0.113-0.278s-0.040-0.201-0.113-0.278c-0.088-0.070-0.202-0.106-0.318-0.099h-0.177v0.754h0.177c0.116 0.007 0.231-0.029 0.318-0.099z"></path>
<path fill="#afb1b8" d="M13.714 11.627c0 0 3.283 1.135 3.213 2.777v2.777c0 0-3.28-1.135-3.212-2.777l-0.001-2.777z"></path>
<path fill="#afb1b8" d="M19.851 16.53c0.62-0.391 1.337-0.633 2.086-0.704v-0.869c-0.863 0.304-1.594 0.856-2.086 1.573v0z"></path>
<path fill="#afb1b8" d="M19.479 16.792c0.507-0.935 1.387-1.657 2.458-2.017v-2.505c0 0-4.675 1.616-4.576 3.955v3.954c0 0 0.208-0.072 0.536-0.208 0-0.126 0-0.254 0.015-0.382 0.097-1.086 0.66-2.091 1.567-2.797v0z"></path>
<path fill="#afb1b8" d="M19.034 18.261c0.024-0.274 0.079-0.546 0.164-0.81-0.565 0.609-0.906 1.365-0.978 2.161-0.007 0.075-0.011 0.15-0.012 0.228 0.265-0.117 0.575-0.262 0.899-0.434-0.083-0.377-0.107-0.762-0.073-1.145v0z"></path>
<path fill="#afb1b8" d="M19.22 18.276c-0.031 0.346-0.012 0.695 0.058 1.037 1.277-0.7 2.712-1.781 2.657-3.088v-0.114c-0.913 0.093-1.766 0.459-2.43 1.040-0.155 0.36-0.251 0.739-0.285 1.125v0z"></path>
</svg>
