<!-- Generated by IcoMoon.io -->
<svg version="1.1" xmlns="http://www.w3.org/2000/svg" width="32" height="32" viewBox="0 0 32 32">
<title>Client4</title>
<path fill="#2196f3" d="M10.569 14.325h-0.001c-0.451 0-0.817 0.325-0.817 0.726v0c0 0.401 0.366 0.726 0.817 0.726h0.001c0.451 0 0.817-0.325 0.817-0.726v-0c0-0.401-0.366-0.726-0.817-0.726z"></path>
<path fill="#2196f3" d="M16.601 14.093c-0.001-0.557-0.251-1.091-0.694-1.485s-1.044-0.616-1.671-0.617v0c-0.627 0.001-1.228 0.223-1.672 0.617s-0.693 0.928-0.695 1.486v0 3.073c0 0 4.731-0.468 4.732-3.072v-0z"></path>
<path fill="#2196f3" d="M8.094 18.174c0.001 0.388 0.175 0.759 0.483 1.033s0.726 0.429 1.163 0.43v0c0.436-0.001 0.854-0.156 1.162-0.43s0.482-0.645 0.484-1.033v0-2.138c0 0-3.292 0.326-3.292 2.137zM9.74 18.557c-0.085 0-0.169-0.022-0.239-0.065s-0.126-0.102-0.159-0.172c-0.033-0.070-0.041-0.147-0.025-0.221s0.058-0.143 0.118-0.196c0.060-0.054 0.137-0.090 0.221-0.105s0.17-0.007 0.249 0.022c0.079 0.029 0.146 0.078 0.193 0.141s0.073 0.137 0.073 0.213c0 0.050-0.011 0.1-0.032 0.147s-0.053 0.089-0.093 0.125c-0.040 0.036-0.088 0.064-0.14 0.083s-0.109 0.029-0.165 0.029v-0.001z"></path>
<path fill="#2196f3" d="M13.067 18.346h-0.318v0.328h-0.165v-0.803h0.523v0.134h-0.357v0.207h0.318v0.133zM13.862 18.291c0 0.079-0.014 0.148-0.042 0.208s-0.068 0.105-0.12 0.138c-0.052 0.032-0.111 0.049-0.179 0.049s-0.126-0.016-0.178-0.048-0.093-0.078-0.121-0.137c-0.029-0.060-0.043-0.128-0.044-0.205v-0.040c0-0.079 0.014-0.149 0.042-0.208s0.069-0.106 0.121-0.138c0.052-0.032 0.112-0.049 0.179-0.049s0.126 0.016 0.178 0.049c0.052 0.032 0.092 0.078 0.121 0.138s0.043 0.129 0.043 0.208v0.036zM13.694 18.255c0-0.084-0.015-0.148-0.045-0.192s-0.073-0.066-0.129-0.066c-0.056 0-0.098 0.022-0.129 0.065s-0.045 0.106-0.046 0.19v0.039c0 0.082 0.015 0.146 0.045 0.191s0.074 0.068 0.13 0.068c0.056 0 0.098-0.022 0.128-0.065s0.045-0.107 0.045-0.191v-0.039zM14.399 18.464c0-0.031-0.011-0.055-0.033-0.072s-0.062-0.035-0.119-0.053c-0.057-0.019-0.103-0.037-0.136-0.055-0.091-0.049-0.137-0.116-0.137-0.199 0-0.043 0.012-0.082 0.036-0.116s0.060-0.061 0.105-0.080c0.046-0.019 0.097-0.029 0.154-0.029s0.108 0.011 0.153 0.031c0.045 0.021 0.080 0.050 0.104 0.088s0.037 0.081 0.037 0.129h-0.165c0-0.037-0.012-0.065-0.035-0.085s-0.056-0.031-0.098-0.031c-0.040 0-0.072 0.009-0.094 0.026s-0.034 0.039-0.034 0.067c0 0.026 0.013 0.048 0.039 0.066s0.065 0.034 0.116 0.050c0.094 0.028 0.163 0.063 0.206 0.105s0.065 0.094 0.065 0.157c0 0.069-0.026 0.124-0.079 0.164s-0.123 0.059-0.212 0.059c-0.062 0-0.118-0.011-0.169-0.034s-0.090-0.054-0.116-0.093c-0.027-0.039-0.040-0.085-0.040-0.137h0.166c0 0.089 0.053 0.133 0.159 0.133 0.039 0 0.070-0.008 0.092-0.024s0.033-0.039 0.033-0.067zM15.282 18.005h-0.246v0.669h-0.165v-0.669h-0.243v-0.134h0.654v0.134zM15.86 18.326h-0.318v0.215h0.373v0.133h-0.538v-0.803h0.537v0.134h-0.372v0.191h0.318v0.13zM16.309 18.38h-0.132v0.294h-0.165v-0.803h0.298c0.095 0 0.168 0.021 0.219 0.063s0.077 0.102 0.077 0.179c0 0.055-0.012 0.101-0.036 0.137s-0.059 0.065-0.108 0.087l0.174 0.328v0.008h-0.178l-0.151-0.294zM16.177 18.246h0.133c0.042 0 0.074-0.011 0.096-0.031s0.034-0.051 0.034-0.088c0-0.038-0.011-0.068-0.033-0.089s-0.054-0.033-0.099-0.033h-0.133v0.241zM17.18 18.391v0.283h-0.165v-0.803h0.313c0.060 0 0.113 0.011 0.159 0.033s0.081 0.053 0.106 0.094c0.025 0.040 0.037 0.087 0.037 0.138 0 0.079-0.027 0.141-0.081 0.186s-0.128 0.068-0.223 0.068h-0.145zM17.18 18.257h0.148c0.044 0 0.077-0.010 0.1-0.031s0.035-0.050 0.035-0.088c0-0.039-0.012-0.071-0.035-0.095s-0.055-0.037-0.096-0.038h-0.152v0.252zM18.226 18.326h-0.318v0.215h0.373v0.133h-0.538v-0.803h0.537v0.134h-0.372v0.191h0.318v0.13zM18.994 18.005h-0.246v0.669h-0.165v-0.669h-0.243v-0.134h0.654v0.134zM19.572 18.326h-0.318v0.215h0.373v0.133h-0.538v-0.803h0.537v0.134h-0.372v0.191h0.318v0.13zM20.021 18.38h-0.132v0.294h-0.165v-0.803h0.298c0.095 0 0.168 0.021 0.219 0.063s0.077 0.102 0.077 0.179c0 0.055-0.012 0.101-0.036 0.137s-0.059 0.065-0.108 0.087l0.174 0.328v0.008h-0.177l-0.151-0.294zM19.89 18.246h0.133c0.041 0 0.074-0.011 0.096-0.031s0.034-0.051 0.034-0.088c0-0.038-0.011-0.068-0.033-0.089s-0.054-0.033-0.099-0.033h-0.133v0.241zM20.862 18.464c0-0.031-0.011-0.055-0.033-0.072s-0.062-0.035-0.119-0.053c-0.057-0.019-0.103-0.037-0.136-0.055-0.091-0.049-0.137-0.116-0.137-0.199 0-0.043 0.012-0.082 0.036-0.116s0.060-0.061 0.105-0.080c0.046-0.019 0.098-0.029 0.154-0.029s0.108 0.011 0.153 0.031c0.045 0.021 0.080 0.050 0.104 0.088s0.038 0.081 0.038 0.129h-0.165c0-0.037-0.012-0.065-0.035-0.085s-0.056-0.031-0.098-0.031c-0.040 0-0.072 0.009-0.094 0.026s-0.034 0.039-0.034 0.067c0 0.026 0.013 0.048 0.039 0.066s0.065 0.034 0.116 0.050c0.094 0.028 0.163 0.063 0.206 0.105s0.065 0.094 0.065 0.157c0 0.069-0.026 0.124-0.079 0.164s-0.123 0.059-0.212 0.059c-0.062 0-0.118-0.011-0.169-0.034s-0.089-0.054-0.116-0.093c-0.027-0.039-0.040-0.085-0.040-0.137h0.166c0 0.089 0.053 0.133 0.159 0.133 0.039 0 0.070-0.008 0.092-0.024s0.033-0.039 0.033-0.067z"></path>
</svg>
