<!-- Generated by IcoMoon.io -->
<svg version="1.1" xmlns="http://www.w3.org/2000/svg" width="32" height="32" viewBox="0 0 32 32">
<title>Client6</title>
<path fill="#afb1b8" d="M16.080 15.512c-0.083-0.111-0.123-0.242-0.114-0.374v-0.543c0-0.166 0.038-0.293 0.113-0.379s0.205-0.13 0.389-0.129c0.173 0 0.295 0.037 0.368 0.11 0.079 0.094 0.117 0.209 0.109 0.325v0.128h-0.309v-0.129c0.001-0.042-0.002-0.085-0.009-0.126-0.004-0.029-0.020-0.055-0.044-0.075-0.032-0.022-0.072-0.032-0.112-0.029-0.042-0.003-0.084 0.008-0.118 0.031-0.027 0.022-0.045 0.051-0.051 0.083-0.009 0.044-0.013 0.089-0.012 0.134v0.659c-0.005 0.064 0.009 0.127 0.040 0.185 0.015 0.020 0.037 0.035 0.062 0.045s0.053 0.013 0.080 0.010c0.040 0.003 0.079-0.008 0.109-0.030 0.025-0.022 0.041-0.050 0.046-0.080 0.007-0.044 0.010-0.088 0.010-0.132v-0.134h0.309v0.122c0.009 0.121-0.029 0.241-0.107 0.341-0.071 0.081-0.192 0.121-0.37 0.121s-0.312-0.043-0.388-0.133z"></path>
<path fill="#afb1b8" d="M17.366 15.518c-0.078-0.084-0.117-0.208-0.117-0.37v-0.571c0-0.161 0.039-0.283 0.117-0.366s0.208-0.124 0.391-0.124c0.182 0 0.311 0.041 0.389 0.124s0.118 0.205 0.118 0.366v0.571c0 0.161-0.040 0.285-0.119 0.37s-0.208 0.128-0.388 0.128c-0.18 0-0.313-0.043-0.391-0.127zM17.901 15.381c0.028-0.053 0.041-0.111 0.037-0.169v-0.699c0.004-0.057-0.009-0.114-0.036-0.166-0.016-0.020-0.038-0.036-0.063-0.046s-0.054-0.013-0.081-0.010c-0.028-0.003-0.056 0-0.082 0.010s-0.048 0.025-0.064 0.045c-0.028 0.052-0.041 0.109-0.037 0.166v0.702c-0.004 0.058 0.009 0.116 0.037 0.169 0.018 0.018 0.040 0.032 0.065 0.042s0.052 0.015 0.079 0.015c0.027 0 0.054-0.005 0.079-0.015s0.047-0.024 0.065-0.042v-0.003z"></path>
<path fill="#afb1b8" d="M18.636 14.103h0.333l0.25 1.053 0.256-1.053h0.324l0.033 1.52h-0.239l-0.026-1.057-0.247 1.057h-0.192l-0.256-1.060-0.024 1.060h-0.242l0.030-1.52z"></path>
<path fill="#afb1b8" d="M20.203 14.103h0.518c0.298 0 0.448 0.144 0.448 0.432 0 0.276-0.157 0.413-0.471 0.413h-0.176v0.676h-0.32l0.002-1.52zM20.646 14.753c0.032 0.003 0.064 0.001 0.094-0.007s0.058-0.022 0.082-0.041c0.037-0.051 0.053-0.112 0.046-0.172 0.002-0.046-0.004-0.093-0.015-0.138-0.005-0.015-0.012-0.029-0.024-0.042s-0.025-0.023-0.040-0.031c-0.044-0.018-0.094-0.027-0.143-0.024h-0.124v0.454h0.124z"></path>
<path fill="#afb1b8" d="M21.63 14.103h0.344l0.352 1.52h-0.298l-0.070-0.351h-0.306l-0.072 0.351h-0.302l0.352-1.52zM21.924 15.097l-0.12-0.638-0.12 0.638h0.239z"></path>
<path fill="#afb1b8" d="M22.61 14.103h0.224l0.428 0.867v-0.867h0.265v1.52h-0.213l-0.431-0.905v0.905h-0.274l0.001-1.52z"></path>
<path fill="#afb1b8" d="M24.149 15.044l-0.356-0.939h0.3l0.217 0.603 0.204-0.603h0.294l-0.352 0.939v0.58h-0.307v-0.58z"></path>
<path fill="#afb1b8" d="M16.574 16.288v0.079h-0.261v0.618h-0.109v-0.618h-0.262v-0.079h0.632z"></path>
<path fill="#afb1b8" d="M17.392 16.986h-0.084c-0.009 0-0.017-0.002-0.024-0.007s-0.011-0.010-0.014-0.016l-0.075-0.166h-0.362l-0.075 0.166c-0.002 0.007-0.006 0.013-0.012 0.019-0.007 0.005-0.015 0.007-0.024 0.007h-0.084l0.32-0.697h0.111l0.324 0.694zM16.862 16.727h0.302l-0.128-0.284c-0.009-0.021-0.017-0.043-0.024-0.066-0.004 0.013-0.008 0.026-0.012 0.037l-0.012 0.029-0.127 0.283z"></path>
<path fill="#afb1b8" d="M17.943 16.917c0.020 0.001 0.040 0.001 0.060 0 0.017-0.002 0.034-0.004 0.051-0.008 0.016-0.003 0.031-0.008 0.046-0.013s0.028-0.011 0.043-0.017v-0.157h-0.128c-0.003 0-0.006-0-0.009-0.001s-0.006-0.002-0.008-0.004c-0.002-0.002-0.004-0.004-0.005-0.006s-0.002-0.005-0.002-0.007v-0.054h0.248v0.267c-0.020 0.012-0.042 0.024-0.064 0.033s-0.047 0.018-0.071 0.024c-0.026 0.007-0.053 0.011-0.080 0.014-0.031 0.003-0.062 0.004-0.093 0.004-0.055 0-0.11-0.008-0.161-0.026-0.048-0.017-0.091-0.041-0.128-0.073s-0.064-0.069-0.082-0.11c-0.020-0.046-0.030-0.095-0.029-0.145-0.001-0.050 0.009-0.099 0.029-0.146 0.018-0.041 0.046-0.079 0.082-0.11s0.080-0.056 0.128-0.072c0.055-0.018 0.113-0.027 0.171-0.026 0.030-0 0.059 0.002 0.089 0.006 0.026 0.004 0.052 0.010 0.076 0.018 0.022 0.007 0.044 0.017 0.064 0.028s0.038 0.023 0.056 0.036l-0.031 0.043c-0.002 0.004-0.006 0.007-0.010 0.010s-0.009 0.004-0.015 0.004c-0.007-0-0.014-0.002-0.020-0.006-0.010-0.004-0.020-0.010-0.031-0.017-0.014-0.007-0.028-0.014-0.043-0.019-0.019-0.007-0.039-0.012-0.059-0.015-0.027-0.004-0.054-0.006-0.081-0.006-0.042-0-0.084 0.006-0.123 0.019-0.036 0.012-0.068 0.031-0.094 0.055s-0.047 0.055-0.059 0.087c-0.029 0.076-0.029 0.157 0 0.232 0.014 0.033 0.036 0.063 0.064 0.088 0.026 0.024 0.058 0.043 0.093 0.055 0.041 0.012 0.084 0.017 0.127 0.014z"></path>
<path fill="#afb1b8" d="M18.962 16.906h0.349v0.079h-0.456v-0.697h0.109l-0.003 0.618z"></path>
<path fill="#afb1b8" d="M19.675 16.986h-0.109v-0.697h0.109v0.697z"></path>
<path fill="#afb1b8" d="M20.081 16.292c0.007 0.003 0.012 0.008 0.017 0.013l0.467 0.526c-0.001-0.008-0.001-0.017 0-0.025s0-0.015 0-0.023v-0.497h0.095v0.7h-0.055c-0.008 0.001-0.016-0.001-0.024-0.004s-0.012-0.008-0.017-0.013l-0.467-0.525c0 0.008 0 0.016 0 0.024s0 0.015 0 0.022v0.497h-0.091v-0.697h0.057c0.006 0 0.012 0.001 0.018 0.003z"></path>
<path fill="#afb1b8" d="M21.466 16.288v0.077h-0.387v0.23h0.314v0.074h-0.314v0.238h0.387v0.077h-0.5v-0.696h0.5z"></path>
<path fill="#afb1b8" d="M10.007 11.982l4.856 1.19v4.171l-4.856-1.19v-4.171zM9.695 11.627v4.73l5.478 1.343v-4.729l-5.478-1.344z"></path>
<path fill="#afb1b8" d="M12.631 19.895l-5.478-1.344v-4.729l5.478 1.344v4.73z"></path>
<path fill="#afb1b8" d="M9.786 11.929l4.792 1.175-2.038 1.76-4.793-1.176 2.039-1.759zM9.695 11.627l-2.543 2.195 5.478 1.344 2.542-2.195-5.478-1.344z"></path>
<path fill="#afb1b8" d="M12.94 19.629l2.234-1.929-2.234-0.548v2.477z"></path>
</svg>
