<svg aria-hidden="true" style="position:absolute;width:0;height:0;overflow:hidden" xmlns="http://www.w3.org/2000/svg"><defs><symbol id="icon-antenna1" viewBox="0 0 32 32"><path fill="#212121" style="fill:var(--color1, #212121)" d="m30.773 22.098-8.443-8.505.937-4.615c.242.094.499.144.758.146h.006a2.159 2.159 0 1 0-2.008-1.435l-4.96.605L8.972.161a.534.534 0 0 0-.377-.16.532.532 0 0 0-.373.155L6.709 1.66a.534.534 0 0 0 0 .754l.814.826a14.943 14.943 0 0 0 2.519 17.663.513.513 0 0 0 .146.098c-.034.18-.051.364-.052.547v6.187h-6.4a2.67 2.67 0 0 0-2.667 2.667v1.067c0 .295.239.533.533.533h24.533a.533.533 0 0 0 .533-.533v-1.067a2.67 2.67 0 0 0-2.667-2.667h-6.4v-2.742a15.09 15.09 0 0 0 3.049.32 14.854 14.854 0 0 0 7.04-1.783l.818.823a.534.534 0 0 0 .377.16.532.532 0 0 0 .373-.155l1.513-1.504a.534.534 0 0 0 0-.754zM23.28 6.233a1.066 1.066 0 1 1 .752 1.822h-.003a1.067 1.067 0 0 1-.747-1.823h-.002zm-1.256 3.505-.598 2.946-1.175-1.182 1.774-1.763zm-.605-.902-1.92 1.909-1.485-1.493 3.405-.415zM24.004 28.8a1.6 1.6 0 0 1 1.6 1.6v.533H2.137V30.4a1.6 1.6 0 0 1 1.6-1.6h20.267zm-7.467-2.133v1.067h-5.333v-1.067h5.333zM11.204 25.6v-4.053c0-1.294 1.196-2.347 2.667-2.347s2.667 1.053 2.667 2.347V25.6h-5.333zm6.4-1.696v-2.357c0-1.882-1.675-3.413-3.733-3.413a3.8 3.8 0 0 0-3.281 1.786A13.87 13.87 0 0 1 8.311 4.033l18.602 18.708a13.818 13.818 0 0 1-9.309 1.163zm11.289-.684L7.836 2.039l.755-.752 7.935 7.98c.004 0 .006.007.01.01l13.115 13.191-.757.752z"/><path fill="#2196f3" style="fill:var(--color2, #2196f3)" d="M13.876 20.267h-.005a1.6 1.6 0 1 0-.004 3.2h.005a1.6 1.6 0 1 0 .004-3.2zm.373 1.978a.534.534 0 0 1-.752-.756.534.534 0 0 1 .373-.155.532.532 0 0 1 .373.911h.005z"/></symbol><symbol id="icon-astronaut1" viewBox="0 0 32 32"><path fill="#2196f3" style="fill:var(--color2, #2196f3)" d="M31.974 4.524a.534.534 0 0 0-.43-.363l-1.91-.278-.855-1.731c-.179-.365-.777-.365-.956 0l-.855 1.731-1.91.278a.535.535 0 0 0-.296.91l1.383 1.348-.326 1.903c-.034.2.048.402.212.522a.53.53 0 0 0 .562.04l1.709-.899 1.709.899a.536.536 0 0 0 .775-.563l-.326-1.903 1.383-1.348a.536.536 0 0 0 .135-.547zm-2.463 1.327a.534.534 0 0 0-.153.472l.191 1.114-1-.526a.533.533 0 0 0-.498 0l-1.001.526.191-1.114a.534.534 0 0 0-.153-.472l-.81-.789 1.119-.163a.532.532 0 0 0 .402-.292l.5-1.013.5 1.013a.535.535 0 0 0 .402.292l1.119.163-.809.789zM26.134 20.522h-1.067v1.067h1.067v-1.067zM26.134 22.656h-1.067v1.067h1.067v-1.067zM27.2 21.589h-1.067v1.067H27.2v-1.067zM25.067 21.589H24v1.067h1.067v-1.067zM22.4 26.389h-1.067v1.067H22.4v-1.067zM22.4 28.522h-1.067v1.067H22.4v-1.067zM23.467 27.456H22.4v1.067h1.067v-1.067zM21.333 27.456h-1.067v1.067h1.067v-1.067zM16 24.256h-1.067v1.067H16v-1.067zM16 26.389h-1.067v1.067H16v-1.067zM17.067 25.322H16v1.067h1.067v-1.067zM14.933 25.322h-1.067v1.067h1.067v-1.067zM5.867 6.122H4.8v1.067h1.067V6.122zM5.867 8.255H4.8v1.067h1.067V8.255z"/><path fill="#2196f3" style="fill:var(--color2, #2196f3)" d="M6.933 7.189H5.866v1.067h1.067V7.189zM4.8 7.189H3.733v1.067H4.8V7.189z"/><path fill="#212121" style="fill:var(--color1, #212121)" d="M24.715 14.159a1.775 1.775 0 0 0-1.188-.705 1.778 1.778 0 0 0-1.34.352l-1.252.96-1.898 1.417-1.358-.541c2.421-1.086 4.114-3.508 4.114-6.32 0-3.823-3.123-6.933-6.961-6.933s-6.961 3.11-6.961 6.933a6.86 6.86 0 0 0 1.12 3.758l-2.764-.024h-.005c-.009 0-.015.004-.023.005a.515.515 0 0 0-.155.031l-.038.013c-.006.003-.013.003-.019.006l-3.233 1.596-.001.001-1.893.911a.397.397 0 0 0-.063.035 1.779 1.779 0 0 0-.598 2.295c.22.429.595.745 1.056.889a1.776 1.776 0 0 0 1.378-.128l1.388-.738 2.264-1.169 1.357-.008L2.2 22.211l-.002.001-1.339 1.333c-.316.315-.49.732-.49 1.178s.174.863.49 1.179c.325.323.752.485 1.179.485s.854-.162 1.18-.485l1.314-1.309 1.741-1.3.901.897-1.762 1.754-.002.001-1.339 1.333c-.316.315-.49.732-.49 1.178s.174.863.49 1.179c.325.323.753.485 1.18.485s.855-.162 1.18-.485l3.482-3.467.001-.002 1.01-1-.004-.004c.006-.006.015-.009.022-.015l5.166-5.658 3.471.494a.52.52 0 0 0 .262-.033c.018-.006.033-.015.05-.023.019-.01.039-.015.058-.027l3.213-2.133c.012-.008.018-.021.029-.029.013-.01.029-.014.041-.026l1.271-1.191c.662-.62.753-1.635.212-2.362zM2.13 17.77a.714.714 0 0 1-.558.052.717.717 0 0 1-.213-1.26l1.314-.632.449 1.313-.992.527zm3.498-1.828-1.548.8-.439-1.283 2.027-1.001-.04 1.484zm15.099-6.62a5.79 5.79 0 0 1-.599 2.559l-4.181-1.899a1.863 1.863 0 0 0-.788-1.388l1.464-4.86c2.378.756 4.105 2.974 4.105 5.588zm-11.789 0c0-3.235 2.644-5.867 5.894-5.867.253 0 .5.021.745.052l-1.432 4.754c-.019-.001-.037-.006-.057-.006-1.033 0-1.873.837-1.873 1.867s.84 1.867 1.873 1.867c.694 0 1.294-.383 1.618-.945l3.862 1.755a5.894 5.894 0 0 1-4.737 2.39c-3.25 0-5.894-2.632-5.894-5.867zm5.956.8c0 .441-.362.8-.806.8s-.806-.359-.806-.8c0-.441.362-.8.806-.8s.806.359.806.8zM2.465 25.146a.608.608 0 0 1-.854.001.592.592 0 0 1 0-.844l.962-.959.851.848-.959.955zm3.214 3.734a.608.608 0 0 1-.855.001.592.592 0 0 1 0-.844l.963-.959.852.848-.96.955zm3.481-3.469-.002.001-1.765 1.76-.852-.848 1.763-1.755.002-.001c.04-.04.065-.088.09-.135.007-.014.02-.026.026-.04.017-.041.019-.085.026-.129.003-.025.014-.047.014-.073 0-.036-.013-.07-.02-.106-.006-.032-.006-.065-.019-.095a.55.55 0 0 0-.091-.138c-.01-.012-.014-.027-.025-.038h-.001l-.001-.002-1.607-1.6c-.017-.017-.039-.024-.058-.038a.507.507 0 0 0-.087-.058.515.515 0 0 0-.093-.033.507.507 0 0 0-.103-.02.5.5 0 0 0-.095.005.53.53 0 0 0-.104.02.477.477 0 0 0-.094.045c-.02.011-.042.015-.061.029L4.23 23.486l-.901-.897 2.399-2.386 4.361 4.289-.928.919zm6.819-7.017c-.015-.002-.03.004-.045.003a.556.556 0 0 0-.3.075.492.492 0 0 0-.083.061c-.013.011-.028.017-.04.029l-4.698 5.146-4.328-4.257 2.833-2.818a.534.534 0 0 0-.379-.911v-.001l-2.219.013.028-1.607 3.104.027a6.947 6.947 0 0 0 4.981 2.101c.437 0 .864-.045 1.279-.123.04.032.079.065.13.085l2.41.96.152.758.178.885-3.003-.427zm4.041.178-.313-1.558 1.446-1.08.947 1.257-2.08 1.381zm3.754-2.831-.838.785-.931-1.236.831-.637a.735.735 0 0 1 .543-.143.718.718 0 0 1 .48.284.713.713 0 0 1-.085.947z"/><path fill="#212121" style="fill:var(--color1, #212121)" d="m13.602 18.544-2.143-2.133a.534.534 0 0 0-.753 0l-2.142 2.133a.537.537 0 0 0 0 .756l2.142 2.133a.536.536 0 0 0 .753 0l2.143-2.133a.535.535 0 0 0 0-.756zm-2.519 1.759-1.387-1.381 1.387-1.381 1.387 1.381-1.387 1.381zM17.164 5.071l-.258 1.036c.071.018 1.738.452 1.738 2.149h1.067c0-2.017-1.666-2.965-2.547-3.185zM19.711 9.322h-1.067v1.067h1.067V9.322z"/></symbol><symbol id="icon-Client-3" viewBox="0 0 32 32"><path fill="#afb1b8" style="fill:var(--color3, #afb1b8)" d="m12.876 19.596.009.002a.018.018 0 0 1 .007.005l.041.039a.347.347 0 0 1-.115.075.456.456 0 0 1-.164.027.444.444 0 0 1-.154-.025.318.318 0 0 1-.191-.179.355.355 0 0 1-.026-.14.314.314 0 0 1 .108-.249.367.367 0 0 1 .123-.071.473.473 0 0 1 .159-.025.385.385 0 0 1 .257.086l-.034.042c-.002.003-.005.006-.009.008s-.009.004-.014.003a.042.042 0 0 1-.015-.004l-.018-.011-.026-.014a.488.488 0 0 0-.034-.014c-.015-.005-.031-.008-.047-.011a.313.313 0 0 0-.061-.004.337.337 0 0 0-.114.019.24.24 0 0 0-.147.137.281.281 0 0 0-.021.111.29.29 0 0 0 .021.112.246.246 0 0 0 .142.135.306.306 0 0 0 .106.018.444.444 0 0 0 .063-.004.258.258 0 0 0 .136-.058.032.032 0 0 1 .02-.007zM14.062 19.398a.339.339 0 0 1-.105.247.358.358 0 0 1-.121.071.504.504 0 0 1-.312 0c-.045-.016-.086-.04-.121-.071s-.061-.068-.078-.109a.362.362 0 0 1 0-.278.322.322 0 0 1 .199-.177.49.49 0 0 1 .312 0c.046.016.087.04.121.071a.317.317 0 0 1 .105.247zm-.108 0a.28.28 0 0 0-.02-.111.216.216 0 0 0-.055-.083.248.248 0 0 0-.087-.053.367.367 0 0 0-.227 0 .248.248 0 0 0-.087.053.216.216 0 0 0-.055.083.329.329 0 0 0 0 .223.227.227 0 0 0 .142.135.367.367 0 0 0 .227 0 .246.246 0 0 0 .087-.052.236.236 0 0 0 .055-.083.306.306 0 0 0 .02-.111zM14.871 19.515l.011.025.012-.025.013-.025.262-.414c.005-.007.01-.012.015-.013a.053.053 0 0 1 .022-.002h.078v.674h-.092v-.539l-.264.42c-.003.006-.009.012-.015.015s-.015.006-.023.006h-.015c-.008 0-.016-.002-.023-.006s-.012-.009-.015-.015l-.271-.423v.54h-.089v-.672h.078c.007 0 .015 0 .022.002s.011.007.014.013l.268.415c.005.008.01.016.013.024zM15.858 19.482v.252h-.103v-.673h.229a.462.462 0 0 1 .128.015.24.24 0 0 1 .09.042.17.17 0 0 1 .051.066.197.197 0 0 1 .017.086.2.2 0 0 1-.019.086.177.177 0 0 1-.055.067.277.277 0 0 1-.091.045.469.469 0 0 1-.124.016l-.124-.002zm0-.072h.124a.308.308 0 0 0 .08-.01.176.176 0 0 0 .058-.029.128.128 0 0 0 .047-.102.117.117 0 0 0-.046-.101.213.213 0 0 0-.138-.036h-.124v.277zM17.237 19.735h-.081c-.008 0-.016-.002-.023-.006s-.01-.01-.013-.016l-.07-.163h-.351l-.072.163c-.003.006-.007.011-.013.015s-.015.007-.023.007h-.081l.308-.674h.107l.312.674zm-.508-.25h.289l-.122-.274a.533.533 0 0 1-.023-.063l-.012.035-.011.029-.121.274zM17.681 19.064a.044.044 0 0 1 .015.012l.449.508v-.523h.092v.674h-.051c-.007 0-.015-.001-.021-.004s-.012-.007-.016-.012l-.449-.507v.523h-.092v-.674h.054c.006 0 .013.001.018.003zM18.994 19.467v.268h-.103v-.268l-.284-.406h.092c.008 0 .016.002.022.006s.01.009.014.015l.178.262a.349.349 0 0 1 .031.06l.013-.029a.307.307 0 0 1 .017-.031l.175-.264.013-.014a.038.038 0 0 1 .022-.007h.093l-.284.408zM14.82 17.931c.045.005.09.009.136.012.692-.269 1.278-.71 1.684-1.267s.614-1.205.598-1.864l-.763-.663c.155.702.083 1.427-.21 2.095s-.793 1.252-1.445 1.687z"/><path fill="#afb1b8" style="fill:var(--color3, #afb1b8)" d="m14.548 17.9.021.004c.697-.433 1.229-1.038 1.526-1.737s.346-1.459.141-2.182l-1.087-.944c.44.776.617 1.645.51 2.505s-.492 1.677-1.111 2.354zM18.234 15.591c-.185.724-.633 1.377-1.279 1.862a4.137 4.137 0 0 1-.608.379c.526-.134 1.009-.372 1.413-.694s.716-.721.915-1.165l-.441-.383z"/><path fill="#afb1b8" style="fill:var(--color3, #afb1b8)" d="m18.061 15.484-.628-.545c-.012.622-.215 1.229-.589 1.76s-.904.964-1.536 1.256h.003c.141 0 .282-.007.421-.022.591-.209 1.112-.543 1.519-.97s.685-.935.81-1.479zM14.638 12.642l-.749-.651c-.669.225-1.245.62-1.652 1.134s-.625 1.122-.627 1.746c.002.689.269 1.358.758 1.9s1.172.927 1.942 1.094c.687-.727 1.089-1.625 1.148-2.564s-.228-1.87-.82-2.658zM19.791 15.384c-.003-.817-.378-1.601-1.043-2.179s-1.567-.904-2.508-.906c-.435 0-.866.069-1.271.206l4.585 3.983c.157-.352.237-.726.237-1.104z"/></symbol><symbol id="icon-Client1" viewBox="0 0 32 32"><path fill="#afb1b8" style="fill:var(--color3, #afb1b8)" d="m13.176 11.993 1.319 1.249-2.449-.001V19.3h6.4v-2.317l1.318 1.247v-6.237h-6.588zm5.213 4.843-3.74-3.541h3.74v3.541zm-1.161 1.577H13.06v-4.075h.295v3.799h3.873v.276zm-3.184 1.693-.154.317-.154-.317h-.129l.225.423v.246h.117v-.246l.224-.423h-.129zm.194.669.054-.156h.259l.055.156h.121l-.253-.669h-.104l-.253.669h.121zm.183-.527.097.278h-.194l.097-.278zm.613.261a.151.151 0 0 0-.025.085c0 .056.02.102.059.137s.093.052.159.052.123-.018.171-.054l.038.045h.13l-.098-.116a.332.332 0 0 0 .058-.203h-.097a.265.265 0 0 1-.028.123l-.129-.153.046-.033c.032-.023.055-.047.069-.07s.021-.049.021-.077c0-.042-.016-.078-.047-.106s-.071-.043-.12-.043c-.054 0-.097.015-.129.046s-.048.072-.048.124c0 .021.005.044.015.067s.029.051.055.084a.402.402 0 0 0-.1.092zm.302.148a.172.172 0 0 1-.106.038c-.033 0-.06-.01-.08-.029s-.03-.044-.03-.075c0-.036.018-.068.055-.096l.014-.01.146.172zm-.12-.296c-.032-.039-.047-.071-.047-.097 0-.022.006-.041.019-.056s.03-.022.052-.022c.02 0 .037.006.05.019s.02.027.02.045a.083.083 0 0 1-.028.065l-.014.011-.051.035zm1.089.363a.243.243 0 0 0 .079-.167h-.116c-.006.048-.021.082-.044.102s-.057.031-.103.031c-.05 0-.088-.019-.114-.057s-.039-.093-.039-.165v-.059c.001-.071.014-.125.041-.162s.066-.056.117-.056c.044 0 .076.011.099.032s.037.056.042.104h.116c-.007-.073-.034-.13-.079-.17s-.104-.06-.178-.06c-.055 0-.103.013-.145.039s-.074.063-.096.111-.034.104-.034.167v.063c.001.062.012.116.034.162a.248.248 0 0 0 .235.146c.076 0 .137-.02.183-.06zm.684-.093a.408.408 0 0 0 .034-.173v-.037c0-.065-.012-.122-.035-.171a.259.259 0 0 0-.243-.153.261.261 0 0 0-.243.154.411.411 0 0 0-.034.173v.038c0 .064.012.121.035.17a.259.259 0 0 0 .243.153.263.263 0 0 0 .145-.04.259.259 0 0 0 .097-.114zm-.125-.379c.028.04.042.096.042.171v.035c0 .075-.014.133-.042.172s-.067.059-.119.059c-.051 0-.091-.02-.119-.06s-.043-.097-.043-.171v-.039c.001-.072.015-.128.043-.167s.068-.059.118-.059c.051 0 .091.02.119.059z"/></symbol><symbol id="icon-Client2" viewBox="0 0 32 32"><path fill="#afb1b8" style="fill:var(--color3, #afb1b8)" d="M15.457 11.793h-.026a4.729 4.729 0 0 0-.119-.004h-.086c-.075 0-.151.002-.227.006h-.017a5.314 5.314 0 0 0-1.979.505l-.081.039v4.168l.19-.065c.167-.057.345-.109.53-.157a6.426 6.426 0 0 1 1.524-.202v.548a3.29 3.29 0 0 0-.2.006h-.016a6.106 6.106 0 0 0-2.569.724v-5.345a5.592 5.592 0 0 1 1.465-.596 5.594 5.594 0 0 1 1.381-.178h.08c.096.002.19.007.278.013.232.016.462.053.688.11v.539a4.28 4.28 0 0 0-.667-.101l-.014-.001a1.621 1.621 0 0 0-.136-.008zm.948.55c.119.009.243.013.369.013a5.93 5.93 0 0 0 1.452-.186 5.952 5.952 0 0 0 1.396-.545v5.25a5.599 5.599 0 0 1-1.466.596 5.642 5.642 0 0 1-1.381.178 4.255 4.255 0 0 1-1.048-.123v-5.284a4.652 4.652 0 0 0 .678.101zm2.672.041-.191.064a6.45 6.45 0 0 1-2.111.361c-.124 0-.239-.003-.349-.011l-.152-.01v4.287l.13.012c.121.011.246.016.371.016.42-.002.839-.056 1.246-.161.335-.084.661-.201.974-.35l.081-.039v-4.169zM12.751 19.186a.285.285 0 0 0-.212-.085.298.298 0 0 0-.217.086.262.262 0 0 0-.061.096.32.32 0 0 0-.022.118v.714c-.002.05.008.1.028.146a.293.293 0 0 0 .071.096.263.263 0 0 0 .098.051.39.39 0 0 0 .107.015.3.3 0 0 0 .295-.301v-.08h-.187v.064a.157.157 0 0 1-.011.064.109.109 0 0 1-.027.04.147.147 0 0 1-.039.021.178.178 0 0 1-.039.007c-.017.002-.034-.001-.049-.007s-.029-.017-.039-.031a.17.17 0 0 1-.025-.096v-.666a.232.232 0 0 1 .023-.107c.01-.015.023-.027.04-.035s.034-.011.052-.008c.016-.001.032.003.047.01s.027.017.037.03a.15.15 0 0 1 .031.096v.062h.185v-.073a.334.334 0 0 0-.085-.226zM13.86 19.178a.332.332 0 0 0-.323-.058.284.284 0 0 0-.171.158.33.33 0 0 0-.027.138v.685a.336.336 0 0 0 .027.14c.017.037.042.07.072.096.029.026.062.047.099.06a.33.33 0 0 0 .222 0c.037-.014.071-.034.101-.06s.054-.059.07-.096a.336.336 0 0 0 .027-.14v-.685a.324.324 0 0 0-.097-.238zm-.088.923c.002.018-.001.037-.007.054s-.017.033-.03.045a.136.136 0 0 1-.176 0c-.013-.013-.023-.028-.03-.045s-.009-.036-.007-.054v-.685c-.002-.018.001-.037.007-.054s.017-.033.03-.045a.136.136 0 0 1 .176 0c.013.013.023.028.03.045s.009.036.007.054v.685zM15.316 20.407V19.11h-.18l-.236.686h-.003l-.238-.686h-.178v1.297h.185v-.789h.003l.181.558h.092l.183-.558h.003v.789h.185zM16.369 19.201a.268.268 0 0 0-.105-.071.407.407 0 0 0-.134-.02h-.275v1.297h.185v-.506h.095a.344.344 0 0 0 .167-.035.267.267 0 0 0 .101-.099.31.31 0 0 0 .042-.113.908.908 0 0 0 .01-.147.718.718 0 0 0-.018-.185.273.273 0 0 0-.068-.119zm-.096.396a.17.17 0 0 1-.017.067.1.1 0 0 1-.048.045.185.185 0 0 1-.087.016h-.084v-.441h.095a.181.181 0 0 1 .083.016.105.105 0 0 1 .043.048.18.18 0 0 1 .016.072v.086c0 .03.002.061 0 .089h-.002zM17.244 19.11h-.151l-.286 1.297h.185l.054-.279h.252l.054.279h.185l-.293-1.297zm-.171.842.091-.47h.003l.09.47h-.185zM18.438 19.892h-.003l-.279-.781h-.178v1.297h.185v-.78h.004l.282.78h.174v-1.297h-.185v.781zM19.567 19.11l-.149.516h-.004l-.149-.516h-.196l.254.749v.548h.185v-.548l.254-.749h-.196zM12.235 20.773h.089v.25h.06v-.25h.089v-.051h-.238v.051zM12.984 20.722l-.117.301h.064l.025-.068h.12l.026.068h.066l-.12-.301h-.064zm-.01.182.041-.112.041.112h-.082zM13.724 20.912h.07v.039a.114.114 0 0 1-.071.025.076.076 0 0 1-.063-.029.122.122 0 0 1-.022-.078c0-.067.029-.101.087-.101.015-.002.03.003.043.011s.021.022.025.037l.06-.011c-.013-.059-.055-.089-.128-.089a.15.15 0 0 0-.105.039.149.149 0 0 0-.043.116.161.161 0 0 0 .039.113c.015.015.033.027.052.035s.041.011.062.009a.184.184 0 0 0 .128-.048v-.119h-.13v.051zM14.48 20.722h-.061v.301h.211v-.051h-.15v-.25zM15.119 20.722h-.061v.301h.061v-.301zM15.743 20.923l-.123-.201h-.059v.301h.057v-.197l.121.197h.06v-.301h-.056v.201zM16.308 20.89h.15v-.051h-.15v-.066h.161v-.051h-.222v.301h.229v-.051h-.168v-.081zM17.678 20.841h-.119v-.119h-.06v.301h.06v-.132h.119v.132h.06v-.301h-.06v.119zM18.246 20.89h.15v-.051h-.15v-.066h.162v-.051h-.222v.301h.228v-.051h-.168v-.081zM19.016 20.89c.053-.008.079-.036.079-.084.002-.013 0-.026-.006-.038s-.013-.022-.024-.029a.168.168 0 0 0-.088-.018h-.128v.301h.061v-.126h.012a.083.083 0 0 1 .038.007.056.056 0 0 1 .021.022l.066.096h.072l-.037-.059a.201.201 0 0 0-.067-.072zm-.061-.041h-.045v-.076h.048a.155.155 0 0 1 .061.007c.004.004.008.009.01.014s.003.011.003.017c0 .006-.002.012-.005.017s-.007.01-.011.013a.162.162 0 0 1-.062.007zM19.597 20.89h.15v-.051h-.15v-.066h.162v-.051h-.223v.301h.229v-.051h-.168v-.081z"/></symbol><symbol id="icon-Client4" viewBox="0 0 32 32"><path fill="#2196f3" style="fill:var(--color2, #2196f3)" d="M10.569 14.325h-.001c-.451 0-.817.325-.817.726 0 .401.366.726.817.726h.001c.451 0 .817-.325.817-.726 0-.401-.366-.726-.817-.726zM16.601 14.093c-.001-.557-.251-1.091-.694-1.485s-1.044-.616-1.671-.617c-.627.001-1.228.223-1.672.617s-.693.928-.695 1.486v3.073s4.731-.468 4.732-3.072zM8.094 18.174c.001.388.175.759.483 1.033s.726.429 1.163.43c.436-.001.854-.156 1.162-.43s.482-.645.484-1.033v-2.138s-3.292.326-3.292 2.137zm1.646.383c-.085 0-.169-.022-.239-.065s-.126-.102-.159-.172c-.033-.07-.041-.147-.025-.221s.058-.143.118-.196a.479.479 0 0 1 .47-.083c.079.029.146.078.193.141a.356.356 0 0 1 .041.36.375.375 0 0 1-.093.125c-.04.036-.088.064-.14.083s-.109.029-.165.029v-.001zM13.067 18.346h-.318v.328h-.165v-.803h.523v.134h-.357v.207h.318v.133zm.795-.055c0 .079-.014.148-.042.208a.318.318 0 0 1-.299.187.317.317 0 0 1-.299-.185.479.479 0 0 1-.044-.205v-.04c0-.079.014-.149.042-.208a.32.32 0 0 1 .3-.187.324.324 0 0 1 .299.187c.029.06.043.129.043.208v.036zm-.168-.036c0-.084-.015-.148-.045-.192s-.073-.066-.129-.066c-.056 0-.098.022-.129.065s-.045.106-.046.19v.039c0 .082.015.146.045.191s.074.068.13.068c.056 0 .098-.022.128-.065s.045-.107.045-.191v-.039zm.705.209c0-.031-.011-.055-.033-.072s-.062-.035-.119-.053a.878.878 0 0 1-.136-.055c-.091-.049-.137-.116-.137-.199 0-.043.012-.082.036-.116s.06-.061.105-.08a.399.399 0 0 1 .307.002c.045.021.08.05.104.088s.037.081.037.129h-.165c0-.037-.012-.065-.035-.085s-.056-.031-.098-.031c-.04 0-.072.009-.094.026s-.034.039-.034.067c0 .026.013.048.039.066s.065.034.116.05c.094.028.163.063.206.105s.065.094.065.157c0 .069-.026.124-.079.164s-.123.059-.212.059c-.062 0-.118-.011-.169-.034s-.09-.054-.116-.093a.235.235 0 0 1-.04-.137h.166c0 .089.053.133.159.133.039 0 .07-.008.092-.024s.033-.039.033-.067zm.883-.459h-.246v.669h-.165v-.669h-.243v-.134h.654v.134zm.578.321h-.318v.215h.373v.133h-.538v-.803h.537v.134h-.372v.191h.318v.13zm.449.054h-.132v.294h-.165v-.803h.298c.095 0 .168.021.219.063s.077.102.077.179c0 .055-.012.101-.036.137s-.059.065-.108.087l.174.328v.008h-.178l-.151-.294zm-.132-.134h.133c.042 0 .074-.011.096-.031s.034-.051.034-.088c0-.038-.011-.068-.033-.089s-.054-.033-.099-.033h-.133v.241zm1.003.145v.283h-.165v-.803h.313c.06 0 .113.011.159.033s.081.053.106.094c.025.04.037.087.037.138 0 .079-.027.141-.081.186s-.128.068-.223.068h-.145zm0-.134h.148c.044 0 .077-.01.1-.031s.035-.05.035-.088c0-.039-.012-.071-.035-.095s-.055-.037-.096-.038h-.152v.252zm1.046.069h-.318v.215h.373v.133h-.538v-.803h.537v.134h-.372v.191h.318v.13zm.768-.321h-.246v.669h-.165v-.669h-.243v-.134h.654v.134zm.578.321h-.318v.215h.373v.133h-.538v-.803h.537v.134h-.372v.191h.318v.13zm.449.054h-.132v.294h-.165v-.803h.298c.095 0 .168.021.219.063s.077.102.077.179c0 .055-.012.101-.036.137s-.059.065-.108.087l.174.328v.008h-.177l-.151-.294zm-.131-.134h.133c.041 0 .074-.011.096-.031s.034-.051.034-.088c0-.038-.011-.068-.033-.089s-.054-.033-.099-.033h-.133v.241zm.972.218c0-.031-.011-.055-.033-.072s-.062-.035-.119-.053a.878.878 0 0 1-.136-.055c-.091-.049-.137-.116-.137-.199 0-.043.012-.082.036-.116s.06-.061.105-.08a.402.402 0 0 1 .307.002.238.238 0 0 1 .142.217h-.165c0-.037-.012-.065-.035-.085s-.056-.031-.098-.031c-.04 0-.072.009-.094.026s-.034.039-.034.067c0 .026.013.048.039.066s.065.034.116.05c.094.028.163.063.206.105s.065.094.065.157c0 .069-.026.124-.079.164s-.123.059-.212.059c-.062 0-.118-.011-.169-.034s-.089-.054-.116-.093a.235.235 0 0 1-.04-.137h.166c0 .089.053.133.159.133.039 0 .07-.008.092-.024s.033-.039.033-.067z"/></symbol><symbol id="icon-Client5" viewBox="0 0 32 32"><path fill="#afb1b8" style="fill:var(--color3, #afb1b8)" d="M11.06 18.774a.27.27 0 0 1 .069.184c.002.044-.006.087-.025.127s-.047.076-.082.105a.492.492 0 0 1-.311.085h-.547V18.11h.535a.495.495 0 0 1 .297.077.26.26 0 0 1 .104.218.255.255 0 0 1-.062.178.301.301 0 0 1-.163.091.316.316 0 0 1 .185.1zm-.641-.176h.229a.227.227 0 0 0 .146-.039.132.132 0 0 0 .049-.114.137.137 0 0 0-.048-.114.237.237 0 0 0-.15-.039h-.225v.306zm.397.447c.018-.015.033-.033.042-.053s.013-.043.012-.065a.14.14 0 0 0-.055-.12.256.256 0 0 0-.155-.042h-.24v.321h.243a.258.258 0 0 0 .154-.04zM12.155 19.275l-.298-.455h-.112v.455h-.256V18.11h.485a.511.511 0 0 1 .338.099.351.351 0 0 1 .036.482.4.4 0 0 1-.231.118l.317.466h-.279zm-.41-.615h.21c.146 0 .218-.059.218-.177a.167.167 0 0 0-.054-.131.24.24 0 0 0-.165-.047h-.212l.002.355zM13.555 19.04h-.511l-.09.235h-.269l.469-1.152h.29l.467 1.152h-.269l-.088-.235zm-.069-.176-.187-.492-.187.492h.373zM15.308 19.275h-.254l-.57-.793v.793h-.254V18.11h.254l.57.797v-.797h.254v1.165zM16.759 18.996a.535.535 0 0 1-.23.206.812.812 0 0 1-.358.073h-.453V18.11h.453a.828.828 0 0 1 .358.072.523.523 0 0 1 .23.203.627.627 0 0 1 0 .612zm-.291-.028c.073-.077.113-.176.113-.278s-.04-.201-.113-.278a.467.467 0 0 0-.318-.099h-.177v.754h.177a.465.465 0 0 0 .318-.099zM13.714 11.627s3.283 1.135 3.213 2.777v2.777s-3.28-1.135-3.212-2.777l-.001-2.777zM19.851 16.53a4.755 4.755 0 0 1 2.086-.704v-.869a4.216 4.216 0 0 0-2.086 1.573z"/><path fill="#afb1b8" style="fill:var(--color3, #afb1b8)" d="M19.479 16.792c.507-.935 1.387-1.657 2.458-2.017V12.27s-4.675 1.616-4.576 3.955v3.954s.208-.072.536-.208c0-.126 0-.254.015-.382.097-1.086.66-2.091 1.567-2.797z"/><path fill="#afb1b8" style="fill:var(--color3, #afb1b8)" d="M19.034 18.261c.024-.274.079-.546.164-.81a3.662 3.662 0 0 0-.978 2.161c-.007.075-.011.15-.012.228.265-.117.575-.262.899-.434a3.768 3.768 0 0 1-.073-1.145zM19.22 18.276c-.031.346-.012.695.058 1.037 1.277-.7 2.712-1.781 2.657-3.088v-.114a4.363 4.363 0 0 0-2.43 1.04c-.155.36-.251.739-.285 1.125z"/></symbol><symbol id="icon-Client6" viewBox="0 0 32 32"><path fill="#afb1b8" style="fill:var(--color3, #afb1b8)" d="M16.08 15.512a.559.559 0 0 1-.114-.374v-.543c0-.166.038-.293.113-.379s.205-.13.389-.129c.173 0 .295.037.368.11a.454.454 0 0 1 .109.325v.128h-.309v-.129a.662.662 0 0 0-.009-.126.12.12 0 0 0-.044-.075.175.175 0 0 0-.112-.029.188.188 0 0 0-.118.031.141.141 0 0 0-.051.083.602.602 0 0 0-.012.134v.659a.334.334 0 0 0 .04.185c.015.02.037.035.062.045s.053.013.08.01a.164.164 0 0 0 .109-.03.137.137 0 0 0 .046-.08.838.838 0 0 0 .01-.132v-.134h.309v.122a.493.493 0 0 1-.107.341c-.071.081-.192.121-.37.121s-.312-.043-.388-.133zM17.366 15.518c-.078-.084-.117-.208-.117-.37v-.571c0-.161.039-.283.117-.366s.208-.124.391-.124c.182 0 .311.041.389.124s.118.205.118.366v.571c0 .161-.04.285-.119.37s-.208.128-.388.128c-.18 0-.313-.043-.391-.127zm.535-.137a.315.315 0 0 0 .037-.169v-.699a.313.313 0 0 0-.036-.166c-.016-.02-.038-.036-.063-.046s-.054-.013-.081-.01c-.028-.003-.056 0-.082.01s-.048.025-.064.045a.304.304 0 0 0-.037.166v.702a.315.315 0 0 0 .037.169.213.213 0 0 0 .288 0v-.003zM18.636 14.103h.333l.25 1.053.256-1.053h.324l.033 1.52h-.239l-.026-1.057-.247 1.057h-.192l-.256-1.06-.024 1.06h-.242l.03-1.52zM20.203 14.103h.518c.298 0 .448.144.448.432 0 .276-.157.413-.471.413h-.176v.676h-.32l.002-1.52zm.443.65c.032.003.064.001.094-.007s.058-.022.082-.041a.244.244 0 0 0 .046-.172.495.495 0 0 0-.015-.138c-.005-.015-.012-.029-.024-.042s-.025-.023-.04-.031a.33.33 0 0 0-.143-.024h-.124v.454h.124zM21.63 14.103h.344l.352 1.52h-.298l-.07-.351h-.306l-.072.351h-.302l.352-1.52zm.294.994-.12-.638-.12.638h.239zM22.61 14.103h.224l.428.867v-.867h.265v1.52h-.213l-.431-.905v.905h-.274l.001-1.52zM24.149 15.044l-.356-.939h.3l.217.603.204-.603h.294l-.352.939v.58h-.307v-.58zM16.574 16.288v.079h-.261v.618h-.109v-.618h-.262v-.079h.632zM17.392 16.986h-.084a.042.042 0 0 1-.038-.023l-.075-.166h-.362l-.075.166a.044.044 0 0 1-.012.019.04.04 0 0 1-.024.007h-.084l.32-.697h.111l.324.694zm-.53-.259h.302l-.128-.284a.642.642 0 0 1-.024-.066.816.816 0 0 1-.012.037l-.012.029-.127.283zM17.943 16.917a.6.6 0 0 0 .06 0c.017-.002.034-.004.051-.008.016-.003.031-.008.046-.013l.043-.017v-.157h-.128l-.009-.001-.008-.004-.005-.006a.019.019 0 0 1-.002-.007v-.054h.248v.267a.483.483 0 0 1-.215.071.964.964 0 0 1-.093.004.485.485 0 0 1-.161-.026c-.048-.017-.091-.041-.128-.073s-.064-.069-.082-.11a.345.345 0 0 1-.029-.145.353.353 0 0 1 .029-.146c.018-.041.046-.079.082-.11s.08-.056.128-.072a.522.522 0 0 1 .171-.026.468.468 0 0 1 .229.052c.02.011.038.023.056.036l-.031.043c-.002.004-.006.007-.01.01s-.009.004-.015.004a.036.036 0 0 1-.02-.006.194.194 0 0 1-.031-.017c-.014-.007-.028-.014-.043-.019a.3.3 0 0 0-.059-.015.552.552 0 0 0-.081-.006.39.39 0 0 0-.123.019c-.036.012-.068.031-.094.055s-.047.055-.059.087a.32.32 0 0 0 0 .232.264.264 0 0 0 .157.143.363.363 0 0 0 .127.014zM18.962 16.906h.349v.079h-.456v-.697h.109l-.003.618zM19.675 16.986h-.109v-.697h.109v.697zM20.081 16.292c.007.003.012.008.017.013l.467.526v-.545h.095v.7h-.055c-.008.001-.016-.001-.024-.004s-.012-.008-.017-.013l-.467-.525v.543h-.091v-.697h.057l.018.003zM21.466 16.288v.077h-.387v.23h.314v.074h-.314v.238h.387v.077h-.5v-.696h.5zM10.007 11.982l4.856 1.19v4.171l-4.856-1.19v-4.171zm-.312-.355v4.73l5.478 1.343v-4.729l-5.478-1.344z"/><path fill="#afb1b8" style="fill:var(--color3, #afb1b8)" d="m12.631 19.895-5.478-1.344v-4.729l5.478 1.344v4.73z"/><path fill="#afb1b8" style="fill:var(--color3, #afb1b8)" d="m9.786 11.929 4.792 1.175-2.038 1.76-4.793-1.176 2.039-1.759zm-.091-.302-2.543 2.195 5.478 1.344 2.542-2.195-5.478-1.344zM12.94 19.629l2.234-1.929-2.234-.548v2.477z"/></symbol><symbol id="icon-clock1" viewBox="0 0 32 32"><path fill="#212121" style="fill:var(--color1, #212121)" d="M31.297 15.301C31.295 6.849 24.442-.002 15.989 0S.686 6.855.688 15.308a15.304 15.304 0 0 0 10.649 14.576.662.662 0 0 0 .529-.065.637.637 0 0 0 .283-.356l3.865-12.25a1.912 1.912 0 1 0-.84-3.635l-5.106-5.107a.637.637 0 0 0-.902.902l5.103 5.109a1.876 1.876 0 0 0 .536 2.309l-3.683 11.673C3.844 25.783.118 17.71 2.799 10.432S13.553-.572 20.831 2.109s11.004 10.754 8.323 18.032a14.042 14.042 0 0 1-7.462 7.973l-.398-1.874a.638.638 0 0 0-1.048-.344l-3.837 3.426a.637.637 0 0 0 .231 1.084l4.899 1.563a.638.638 0 0 0 .819-.74l-.391-1.839a15.255 15.255 0 0 0 9.329-14.089zm-15.305-.637a.638.638 0 1 1 0 1.277.638.638 0 0 1 0-1.277zm2.101 14.864 2.184-1.948.603 2.84-2.787-.892z"/><path fill="#2196f3" style="fill:var(--color2, #2196f3)" d="M15.354 3.185V4.46a.638.638 0 1 0 1.276 0V3.185a.638.638 0 0 0-1.276 0zM3.876 14.664a.638.638 0 0 0 0 1.276h1.275a.638.638 0 1 0 0-1.276H3.876zM28.108 15.939a.638.638 0 1 0 0-1.276h-1.275a.638.638 0 0 0 0 1.276h1.275z"/></symbol><symbol id="icon-diagram1" viewBox="0 0 32 32"><path fill="#2196f3" style="fill:var(--color2, #2196f3)" d="M14.926 14.965h1.066v4.798h-1.066v-4.797zM19.19 17.097h1.066v2.665H19.19v-2.665zM10.661 18.696h1.066v1.066h-1.066v-1.066zM7.463 18.163h1.066v1.599H7.463v-1.599z"/><path fill="#212121" style="fill:var(--color1, #212121)" d="M1.599 28.291h25.587a1.6 1.6 0 0 0 1.599-1.599V24.56a1.6 1.6 0 0 0-1.599-1.599h-.533V9.668L29.681 6.8a1.608 1.608 0 1 0-.746-.763L26.654 8.2V6.97a1.6 1.6 0 0 0-1.599-1.599H3.733A1.6 1.6 0 0 0 2.134 6.97v15.992h-.533a1.6 1.6 0 0 0-1.599 1.599v2.132a1.6 1.6 0 0 0 1.599 1.599zM30.384 4.837a.533.533 0 1 1 0 1.067.533.533 0 0 1 0-1.067zM3.198 6.969c0-.294.239-.533.533-.533h21.322c.294 0 .533.239.533.533v2.239l-1.066 1.013V8.035a.533.533 0 0 0-.533-.533H4.797a.533.533 0 0 0-.533.533v13.326c0 .294.239.533.533.533h19.19a.533.533 0 0 0 .533-.533v-9.674l1.066-1.01v12.284H3.198V6.969zm4.798 6.93a1.598 1.598 0 1 0 1.107 2.749l1.853.93a.532.532 0 0 0 .636-.123l3.939-4.431 3.872 2.901a.533.533 0 0 0 .686-.039l3.365-3.188v8.131H5.33V8.569h18.124v2.66l-3.771 3.572-3.904-2.927a.533.533 0 0 0-.718.072l-3.993 4.493-1.493-.746c.011-.064.018-.129.02-.193a1.6 1.6 0 0 0-1.599-1.599zm.533 1.599a.533.533 0 1 1-1.067 0 .533.533 0 0 1 1.067 0zm3.198 8.528h5.331v.533a.533.533 0 0 1-.533.533h-4.264a.533.533 0 0 1-.533-.533v-.533zm-10.661.534c0-.294.239-.533.533-.533h9.062v.533a1.6 1.6 0 0 0 1.599 1.599h4.264a1.6 1.6 0 0 0 1.599-1.599v-.533h9.062c.294 0 .533.239.533.533v2.132a.533.533 0 0 1-.533.533H1.598a.533.533 0 0 1-.533-.533V24.56z"/></symbol><symbol id="icon-envelope" viewBox="0 0 32 32"><path fill="#2196f3" style="fill:var(--color2, #2196f3)" d="M29 4H3C1.346 4 0 5.346 0 7v18c0 1.654 1.346 3 3 3h26c1.654 0 3-1.346 3-3V7c0-1.654-1.346-3-3-3zm0 2c.136 0 .265.028.383.077L16 17.676 2.617 6.077A.996.996 0 0 1 3 6h26zm0 20H3a1 1 0 0 1-1-1V8.19l13.345 11.565a.998.998 0 0 0 1.31 0L30 8.19V25a1 1 0 0 1-1 1z"/></symbol><symbol id="icon-facebook11" viewBox="0 0 32 32"><path fill="#fff" style="fill:var(--color4, #fff)" d="M21.329 5.313h2.921V.225C23.746.156 22.013 0 19.994 0c-4.212 0-7.097 2.649-7.097 7.519V12H8.249v5.688h4.648V32h5.699V17.689h4.46l.708-5.688h-5.169V8.082c.001-1.644.444-2.769 2.735-2.769z"/></symbol><symbol id="icon-facebook1" viewBox="0 0 32 32"><path fill="#afb1b8" style="fill:var(--color3, #afb1b8)" d="M21.329 5.313h2.921V.225C23.746.156 22.013 0 19.994 0c-4.212 0-7.097 2.649-7.097 7.519V12H8.249v5.688h4.648V32h5.699V17.689h4.46l.708-5.688h-5.169V8.082c.001-1.644.444-2.769 2.735-2.769z"/></symbol><symbol id="icon-instagram21" viewBox="0 0 32 32"><path fill="#fff" style="fill:var(--color4, #fff)" d="M31.969 9.408c-.075-1.7-.35-2.869-.744-3.882a7.806 7.806 0 0 0-1.851-2.838A7.867 7.867 0 0 0 26.542.844C25.523.45 24.36.175 22.66.1 20.947.019 20.403 0 16.059 0s-4.888.019-6.595.094c-1.7.075-2.869.35-3.882.744a7.803 7.803 0 0 0-2.838 1.85A7.867 7.867 0 0 0 .9 5.52C.506 6.539.231 7.702.156 9.402c-.081 1.713-.1 2.257-.1 6.601s.019 4.888.094 6.595c.075 1.7.35 2.869.744 3.882a7.895 7.895 0 0 0 1.85 2.838 7.867 7.867 0 0 0 2.832 1.844c1.019.394 2.182.669 3.882.744 1.706.075 2.25.094 6.595.094s4.888-.019 6.595-.094c1.7-.075 2.869-.35 3.882-.744a8.184 8.184 0 0 0 4.682-4.682c.394-1.019.669-2.182.744-3.882.075-1.707.094-2.251.094-6.595s-.006-4.888-.081-6.595zm-2.882 13.065c-.069 1.563-.331 2.407-.55 2.969a5.31 5.31 0 0 1-3.038 3.038c-.563.219-1.413.481-2.969.55-1.688.075-2.194.094-6.464.094s-4.782-.019-6.464-.094c-1.563-.069-2.407-.331-2.969-.55a4.926 4.926 0 0 1-1.838-1.194 4.974 4.974 0 0 1-1.194-1.838c-.219-.563-.481-1.413-.55-2.969-.075-1.688-.094-2.194-.094-6.464s.019-4.782.094-6.464c.069-1.563.331-2.407.55-2.969a4.868 4.868 0 0 1 1.2-1.838A4.974 4.974 0 0 1 6.639 3.55c.563-.219 1.413-.481 2.969-.55 1.688-.075 2.194-.094 6.464-.094 4.276 0 4.782.019 6.464.094 1.563.069 2.407.331 2.969.55a4.914 4.914 0 0 1 1.838 1.194 4.974 4.974 0 0 1 1.194 1.838c.219.563.481 1.413.55 2.969.075 1.688.094 2.194.094 6.464s-.019 4.77-.094 6.458z"/><path fill="#fff" style="fill:var(--color4, #fff)" d="M16.059 7.783c-4.538 0-8.22 3.682-8.22 8.22s3.682 8.22 8.22 8.22c4.539 0 8.22-3.682 8.22-8.22s-3.682-8.22-8.22-8.22zm0 13.552a5.333 5.333 0 0 1 0-10.664 5.333 5.333 0 0 1 0 10.664zM26.524 7.458a1.919 1.919 0 1 1-3.838 0 1.919 1.919 0 0 1 3.838 0z"/></symbol><symbol id="icon-instagram2" viewBox="0 0 32 32"><path fill="#fff" style="fill:var(--color4, #fff)" d="M31.969 9.408c-.075-1.7-.35-2.869-.744-3.882a7.806 7.806 0 0 0-1.851-2.838A7.867 7.867 0 0 0 26.542.844C25.523.45 24.36.175 22.66.1 20.947.019 20.403 0 16.059 0s-4.888.019-6.595.094c-1.7.075-2.869.35-3.882.744a7.803 7.803 0 0 0-2.838 1.85A7.867 7.867 0 0 0 .9 5.52C.506 6.539.231 7.702.156 9.402c-.081 1.713-.1 2.257-.1 6.601s.019 4.888.094 6.595c.075 1.7.35 2.869.744 3.882a7.895 7.895 0 0 0 1.85 2.838 7.867 7.867 0 0 0 2.832 1.844c1.019.394 2.182.669 3.882.744 1.706.075 2.25.094 6.595.094s4.888-.019 6.595-.094c1.7-.075 2.869-.35 3.882-.744a8.184 8.184 0 0 0 4.682-4.682c.394-1.019.669-2.182.744-3.882.075-1.707.094-2.251.094-6.595s-.006-4.888-.081-6.595zm-2.882 13.065c-.069 1.563-.331 2.407-.55 2.969a5.31 5.31 0 0 1-3.038 3.038c-.563.219-1.413.481-2.969.55-1.688.075-2.194.094-6.464.094s-4.782-.019-6.464-.094c-1.563-.069-2.407-.331-2.969-.55a4.926 4.926 0 0 1-1.838-1.194 4.974 4.974 0 0 1-1.194-1.838c-.219-.563-.481-1.413-.55-2.969-.075-1.688-.094-2.194-.094-6.464s.019-4.782.094-6.464c.069-1.563.331-2.407.55-2.969a4.868 4.868 0 0 1 1.2-1.838A4.974 4.974 0 0 1 6.639 3.55c.563-.219 1.413-.481 2.969-.55 1.688-.075 2.194-.094 6.464-.094 4.276 0 4.782.019 6.464.094 1.563.069 2.407.331 2.969.55a4.914 4.914 0 0 1 1.838 1.194 4.974 4.974 0 0 1 1.194 1.838c.219.563.481 1.413.55 2.969.075 1.688.094 2.194.094 6.464s-.019 4.77-.094 6.458z"/><path fill="#fff" style="fill:var(--color4, #fff)" d="M16.059 7.783c-4.538 0-8.22 3.682-8.22 8.22s3.682 8.22 8.22 8.22c4.539 0 8.22-3.682 8.22-8.22s-3.682-8.22-8.22-8.22zm0 13.552a5.333 5.333 0 0 1 0-10.664 5.333 5.333 0 0 1 0 10.664zM26.524 7.458a1.919 1.919 0 1 1-3.838 0 1.919 1.919 0 0 1 3.838 0z"/></symbol><symbol id="icon-linkedin11" viewBox="0 0 32 32"><path fill="#fff" style="fill:var(--color4, #fff)" d="M31.992 32v-.001H32V20.263c0-5.741-1.236-10.164-7.948-10.164-3.227 0-5.392 1.771-6.276 3.449h-.093v-2.913h-6.364v21.364h6.627V21.42c0-2.785.528-5.479 3.977-5.479 3.399 0 3.449 3.179 3.449 5.657v10.401h6.62zM.528 10.636h6.635V32H.528V10.636zM3.843 0C1.722 0 0 1.721 0 3.843s1.721 3.879 3.843 3.879c2.121 0 3.843-1.757 3.843-3.879A3.846 3.846 0 0 0 3.843 0z"/></symbol><symbol id="icon-linkedin1" viewBox="0 0 32 32"><path fill="#afb1b8" style="fill:var(--color3, #afb1b8)" d="M31.992 32v-.001H32V20.263c0-5.741-1.236-10.164-7.948-10.164-3.227 0-5.392 1.771-6.276 3.449h-.093v-2.913h-6.364v21.364h6.627V21.42c0-2.785.528-5.479 3.977-5.479 3.399 0 3.449 3.179 3.449 5.657v10.401h6.62zM.528 10.636h6.635V32H.528V10.636zM3.843 0C1.722 0 0 1.721 0 3.843s1.721 3.879 3.843 3.879c2.121 0 3.843-1.757 3.843-3.879A3.846 3.846 0 0 0 3.843 0z"/></symbol><symbol id="icon-smartphone" viewBox="0 0 32 32"><path fill="#757575" style="fill:var(--color5, #757575)" d="M23 0H9C7.346 0 6 1.346 6 3v26c0 1.654 1.346 3 3 3h14c1.654 0 3-1.346 3-3V3c0-1.654-1.346-3-3-3zM9 2h14a1 1 0 0 1 1 1v21H8V3a1 1 0 0 1 1-1zm14 28H9a1 1 0 0 1-1-1v-3h16v3a1 1 0 0 1-1 1z"/><path fill="#757575" style="fill:var(--color5, #757575)" d="M10.707 27.478c.391.365.391.956 0 1.321s-1.024.365-1.414 0c-.391-.365-.391-.956 0-1.321s1.024-.365 1.414 0z"/></symbol><symbol id="icon-twitter11" viewBox="0 0 32 32"><path fill="#fff" style="fill:var(--color4, #fff)" d="M32 6.078c-1.19.522-2.458.868-3.78 1.036a6.523 6.523 0 0 0 2.886-3.626 13.11 13.11 0 0 1-4.16 1.588A6.574 6.574 0 0 0 22.154 3c-3.632 0-6.556 2.948-6.556 6.562 0 .52.044 1.02.152 1.496-5.454-.266-10.28-2.88-13.522-6.862a6.605 6.605 0 0 0-.898 3.316 6.57 6.57 0 0 0 2.914 5.452 6.479 6.479 0 0 1-2.964-.808v.072c0 3.188 2.274 5.836 5.256 6.446a6.548 6.548 0 0 1-1.72.216 5.8 5.8 0 0 1-1.242-.112c.85 2.598 3.262 4.508 6.13 4.57a13.182 13.182 0 0 1-8.134 2.798c-.538 0-1.054-.024-1.57-.09A18.469 18.469 0 0 0 10.064 29c12.072 0 18.672-10 18.672-18.668 0-.29-.01-.57-.024-.848A13.087 13.087 0 0 0 32 6.078z"/></symbol><symbol id="icon-twitter1" viewBox="0 0 32 32"><path fill="#afb1b8" style="fill:var(--color3, #afb1b8)" d="M32 6.078c-1.19.522-2.458.868-3.78 1.036a6.523 6.523 0 0 0 2.886-3.626 13.11 13.11 0 0 1-4.16 1.588A6.574 6.574 0 0 0 22.154 3c-3.632 0-6.556 2.948-6.556 6.562 0 .52.044 1.02.152 1.496-5.454-.266-10.28-2.88-13.522-6.862a6.605 6.605 0 0 0-.898 3.316 6.57 6.57 0 0 0 2.914 5.452 6.479 6.479 0 0 1-2.964-.808v.072c0 3.188 2.274 5.836 5.256 6.446a6.548 6.548 0 0 1-1.72.216 5.8 5.8 0 0 1-1.242-.112c.85 2.598 3.262 4.508 6.13 4.57a13.182 13.182 0 0 1-8.134 2.798c-.538 0-1.054-.024-1.57-.09A18.469 18.469 0 0 0 10.064 29c12.072 0 18.672-10 18.672-18.668 0-.29-.01-.57-.024-.848A13.087 13.087 0 0 0 32 6.078z"/></symbol></defs></svg>